<svg width="1408" height="373" viewBox="0 0 1408 373" fill="none" xmlns="http://www.w3.org/2000/svg">
<ellipse cx="195.5" cy="193" rx="67.5" ry="67" fill="#7D64F2"/>
<ellipse cx="195.5" cy="193" rx="67.5" ry="67" fill="black" fill-opacity="0.8"/>
<mask id="mask0_726_212" style="mask-type:alpha" maskUnits="userSpaceOnUse" x="74" y="96" width="97" height="96">
<ellipse cx="122.5" cy="144" rx="48.5" ry="48" fill="#7D64F2"/>
</mask>
<g mask="url(#mask0_726_212)">
<ellipse cx="120.5" cy="143.5" rx="56.5" ry="58.5" fill="#7D64F2"/>
<ellipse cx="120.5" cy="143.5" rx="56.5" ry="58.5" fill="black" fill-opacity="0.79"/>
<path opacity="0.4" d="M125.991 171.521C88.3973 183.037 74.9996 151.644 73 134.508C76.1661 107.263 89.1972 56.5752 115.992 71.7917C142.788 87.0082 153.153 117.887 154.986 131.424C155.319 140.849 149.986 162.062 125.991 171.521Z" fill="#7D64F2"/>
<path d="M111.5 155.5C77.8999 161.1 76.1665 129.5 79.4999 113C81.6666 107.667 91.1 97 111.5 97C137 97 138 122.5 136.5 127.5C135 132.5 127.5 152 111.5 155.5Z" fill="#7D64F2"/>
<path opacity="0.5" d="M96.1713 132.171C90.9713 138.171 88.0047 135.338 87.1713 133.171C86.6713 130.004 86.9713 122.271 92.1713 116.671C101.671 106.671 110.671 105.171 116.171 104.171C121.671 103.171 131.171 106.671 120.171 111.671C109.171 116.671 102.671 124.671 96.1713 132.171Z" fill="white"/>
</g>
<mask id="mask1_726_212" style="mask-type:alpha" maskUnits="userSpaceOnUse" x="161" y="82" width="84" height="82">
<ellipse cx="203" cy="123" rx="42" ry="41" fill="#7D64F2"/>
</mask>
<g mask="url(#mask1_726_212)">
<ellipse cx="203.5" cy="125.5" rx="45.5" ry="44.5" fill="#7D64F2"/>
<ellipse cx="203.5" cy="125.5" rx="45.5" ry="44.5" fill="black" fill-opacity="0.79"/>
<path opacity="0.4" d="M208.991 153.521C171.397 165.037 158 133.644 156 116.508C159.166 89.2626 172.197 38.5752 198.992 53.7917C225.788 69.0082 236.5 98.5 236.5 114C236.5 129.5 232.986 144.062 208.991 153.521Z" fill="#7D64F2"/>
<path d="M194.5 137.5C160.9 143.1 159.167 111.5 162.5 95C164.667 89.6667 174.1 79 194.5 79C220 79 225 101.5 220.5 113C217.37 121 210.5 134 194.5 137.5Z" fill="#7D64F2"/>
<path opacity="0.5" d="M179.171 114.171C173.971 120.171 171.005 117.338 170.171 115.171C169.671 112.004 169.971 104.271 175.171 98.6711C184.671 88.6711 193.671 87.171 199.171 86.171C204.671 85.171 214.171 88.671 203.171 93.671C192.171 98.671 185.671 106.671 179.171 114.171Z" fill="white"/>
</g>
<mask id="mask2_726_212" style="mask-type:alpha" maskUnits="userSpaceOnUse" x="69" y="182" width="101" height="99">
<ellipse cx="119.5" cy="231.5" rx="50.5" ry="49.5" fill="#7D64F2"/>
</mask>
<g mask="url(#mask2_726_212)">
<ellipse cx="115.5" cy="229.5" rx="56.5" ry="58.5" fill="#7D64F2"/>
<ellipse cx="115.5" cy="229.5" rx="56.5" ry="58.5" fill="black" fill-opacity="0.79"/>
<path opacity="0.4" d="M120.991 257.521C83.3973 269.037 69.9996 237.644 68 220.508C71.1661 193.263 84.1972 142.575 110.992 157.792C137.788 173.008 148.5 202.5 148.5 218C148.5 233.5 144.986 248.062 120.991 257.521Z" fill="#7D64F2"/>
<path d="M106.5 241.5C72.8999 247.1 71.1665 215.5 74.4999 199C76.6666 193.667 86.1 183 106.5 183C132 183 137 205.5 132.5 217C129.37 225 122.5 238 106.5 241.5Z" fill="#7D64F2"/>
<path opacity="0.5" d="M91.1713 218.171C85.9713 224.171 83.0047 221.338 82.1713 219.171C81.6713 216.004 81.9713 208.271 87.1713 202.671C96.6713 192.671 105.671 191.171 111.171 190.171C116.671 189.171 126.171 192.671 115.171 197.671C104.171 202.671 97.6713 210.671 91.1713 218.171Z" fill="white"/>
</g>
<mask id="mask3_726_212" style="mask-type:alpha" maskUnits="userSpaceOnUse" x="235" y="97" width="97" height="96">
<ellipse cx="283.5" cy="145" rx="48.5" ry="48" fill="#7D64F2"/>
</mask>
<g mask="url(#mask3_726_212)">
<ellipse cx="281.5" cy="144.5" rx="56.5" ry="58.5" fill="#7D64F2"/>
<ellipse cx="281.5" cy="144.5" rx="56.5" ry="58.5" fill="black" fill-opacity="0.79"/>
<path opacity="0.4" d="M286.991 172.521C249.397 184.037 236 152.644 234 135.508C237.166 108.263 250.197 57.5752 276.992 72.7917C303.788 88.0082 314.153 118.887 315.986 132.424C316.319 141.849 310.986 163.062 286.991 172.521Z" fill="#7D64F2"/>
<path d="M272.5 156.5C238.9 162.1 237.167 130.5 240.5 114C242.667 108.667 252.1 98 272.5 98C298 98 299 123.5 297.5 128.5C296 133.5 288.5 153 272.5 156.5Z" fill="#7D64F2"/>
<path opacity="0.5" d="M257.171 133.171C251.971 139.171 249.005 136.338 248.171 134.171C247.671 131.004 247.971 123.271 253.171 117.671C262.671 107.671 271.671 106.171 277.171 105.171C282.671 104.171 292.171 107.671 281.171 112.671C270.171 117.671 263.671 125.671 257.171 133.171Z" fill="white"/>
</g>
<mask id="mask4_726_212" style="mask-type:alpha" maskUnits="userSpaceOnUse" x="154" y="153" width="84" height="82">
<ellipse cx="196" cy="194" rx="42" ry="41" fill="#7D64F2"/>
</mask>
<g mask="url(#mask4_726_212)">
<ellipse cx="196.5" cy="196.5" rx="45.5" ry="44.5" fill="#7D64F2"/>
<ellipse cx="196.5" cy="196.5" rx="45.5" ry="44.5" fill="black" fill-opacity="0.79"/>
<path opacity="0.4" d="M201.991 224.521C164.397 236.037 151 204.644 149 187.508C152.166 160.263 165.197 109.575 191.992 124.792C218.788 140.008 229.5 169.5 229.5 185C229.5 200.5 225.986 215.062 201.991 224.521Z" fill="#7D64F2"/>
<path d="M187.5 208.5C153.9 214.1 152.167 182.5 155.5 166C157.667 160.667 167.1 150 187.5 150C213 150 218 172.5 213.5 184C210.37 192 203.5 205 187.5 208.5Z" fill="#7D64F2"/>
<path opacity="0.5" d="M172.171 185.171C166.971 191.171 164.005 188.338 163.171 186.171C162.671 183.004 162.971 175.271 168.171 169.671C177.671 159.671 186.671 158.171 192.171 157.171C197.671 156.171 207.171 159.671 196.171 164.671C185.171 169.671 178.671 177.671 172.171 185.171Z" fill="white"/>
</g>
<g clip-path="url(#clip0_726_212)">
<mask id="mask5_726_212" style="mask-type:alpha" maskUnits="userSpaceOnUse" x="145" y="233" width="124" height="124">
<circle cx="207" cy="295" r="62" fill="#7D64F2"/>
</mask>
<g mask="url(#mask5_726_212)">
<ellipse cx="205" cy="294.5" rx="60" ry="59.5" fill="#7D64F2"/>
<ellipse cx="205" cy="294.5" rx="60" ry="59.5" fill="black" fill-opacity="0.79"/>
<path opacity="0.4" d="M206.536 324.096C162.171 337.586 146.36 300.812 144 280.738C147.736 248.822 163.115 189.445 194.736 207.27C226.358 225.095 239 259.643 239 277.8C239 295.957 234.854 313.016 206.536 324.096Z" fill="#7D64F2"/>
<path d="M189.839 305.234C150.51 311.766 148.481 274.908 152.383 255.662C154.919 249.442 165.961 237 189.839 237C219.686 237 225.539 263.244 220.272 276.657C216.608 285.989 208.567 301.152 189.839 305.234Z" fill="#7D64F2"/>
<path opacity="0.5" d="M171.791 277.808C165.673 284.796 162.182 281.496 161.202 278.973C160.613 275.285 160.966 266.279 167.085 259.757C178.262 248.111 188.852 246.364 195.323 245.199C201.794 244.035 212.972 248.111 200.03 253.934C187.087 259.757 179.439 269.073 171.791 277.808Z" fill="white"/>
</g>
</g>
<mask id="mask6_726_212" style="mask-type:alpha" maskUnits="userSpaceOnUse" x="232" y="181" width="105" height="105">
<circle cx="284.5" cy="233.5" r="52.5" fill="#7D64F2"/>
</mask>
<g mask="url(#mask6_726_212)">
<ellipse cx="281" cy="233" rx="59" ry="61" fill="#7D64F2"/>
<ellipse cx="281" cy="233" rx="59" ry="61" fill="black" fill-opacity="0.79"/>
<path opacity="0.4" d="M283.991 258.521C246.397 270.037 233 238.644 231 221.508C234.166 194.263 247.197 143.575 273.992 158.792C300.788 174.008 311.5 203.5 311.5 219C311.5 234.5 307.986 249.062 283.991 258.521Z" fill="#7D64F2"/>
<path d="M269.5 242.5C235.9 248.1 234.167 216.5 237.5 200C239.667 194.667 249.1 184 269.5 184C295 184 300 206.5 295.5 218C292.37 226 285.5 239 269.5 242.5Z" fill="#7D64F2"/>
<path opacity="0.5" d="M254.171 219.171C248.971 225.171 246.005 222.338 245.171 220.171C244.671 217.004 244.971 209.271 250.171 203.671C259.671 193.671 268.671 192.171 274.171 191.171C279.671 190.171 289.171 193.671 278.171 198.671C267.171 203.671 260.671 211.671 254.171 219.171Z" fill="white"/>
</g>
<path fill-rule="evenodd" clip-rule="evenodd" d="M169.83 16C169.791 20.059 169.153 23.9747 168 27.6632C179.595 34.7633 187.332 47.5485 187.332 62.1407C187.332 63.7885 187.233 65.4133 187.041 67.0094C190.748 61.5969 192.917 55.0477 192.917 47.9921C192.917 33.0889 183.242 20.4454 169.83 16Z" fill="#1A1A1A"/>
<path fill-rule="evenodd" clip-rule="evenodd" d="M209.671 65.1312C235.643 64.9219 257.101 46.0681 261.446 21.3743C254.937 18.5963 247.762 17.0841 240.233 17.1448C214.261 17.3541 192.802 36.2079 188.457 60.9018C188.965 61.1186 189.477 61.3277 189.993 61.5289C200.721 43.2046 219.776 30.3258 242.008 28.1259C225.008 34.8184 211.366 48.1486 204.248 64.9012C206.032 65.0678 207.841 65.146 209.671 65.1312Z" fill="#1A1A1A"/>
<path d="M469.642 270.956C475.867 270.956 480.96 270.485 484.921 269.541C489.07 268.409 492.371 266.994 494.824 265.296C497.276 263.409 498.973 261.239 499.916 258.786C500.86 256.333 501.331 253.597 501.331 250.578C501.331 244.162 498.313 238.879 492.277 234.727C486.241 230.387 475.867 225.764 461.154 220.858C454.74 218.594 448.327 216.047 441.914 213.216C435.501 210.197 429.747 206.518 424.655 202.178C419.562 197.649 415.412 192.272 412.205 186.045C408.999 179.629 407.395 171.893 407.395 162.836C407.395 153.778 409.093 145.665 412.488 138.494C415.883 131.135 420.693 124.908 426.918 119.814C433.143 114.719 440.688 110.851 449.553 108.209C458.419 105.379 468.416 103.964 479.545 103.964C492.749 103.964 504.161 105.379 513.781 108.209C523.4 111.04 531.323 114.153 537.547 117.549L524.815 152.363C519.345 149.533 513.215 147.08 506.424 145.004C499.822 142.74 491.806 141.608 482.374 141.608C471.811 141.608 464.172 143.117 459.456 146.136C454.929 148.967 452.666 153.401 452.666 159.439C452.666 163.024 453.514 166.043 455.212 168.496C456.91 170.949 459.268 173.214 462.286 175.289C465.492 177.176 469.076 178.969 473.037 180.667C477.187 182.177 481.714 183.78 486.618 185.479C496.804 189.253 505.67 193.026 513.215 196.8C520.76 200.385 526.984 204.631 531.889 209.537C536.982 214.443 540.754 220.198 543.206 226.802C545.658 233.407 546.884 241.426 546.884 250.861C546.884 269.164 540.471 283.41 527.645 293.599C514.818 303.6 495.484 308.6 469.642 308.6C460.965 308.6 453.137 308.034 446.158 306.902C439.179 305.959 432.954 304.732 427.484 303.223C422.202 301.713 417.581 300.109 413.62 298.411C409.847 296.713 406.641 295.109 404 293.599L416.449 258.503C422.297 261.71 429.465 264.635 437.953 267.277C446.63 269.73 457.193 270.956 469.642 270.956Z" fill="black"/>
<path d="M578.017 160.854C585.184 158.779 594.427 156.892 605.745 155.194C617.062 153.307 628.946 152.363 641.395 152.363C654.033 152.363 664.502 154.061 672.801 157.458C681.29 160.666 687.986 165.289 692.89 171.327C697.794 177.365 701.284 184.535 703.359 192.838C705.434 201.14 706.471 210.386 706.471 220.575V304.638H664.313V225.67C664.313 212.084 662.521 202.461 658.937 196.8C655.353 191.139 648.657 188.309 638.849 188.309C635.831 188.309 632.624 188.498 629.229 188.875C625.833 189.064 622.815 189.347 620.175 189.724V304.638H578.017V160.854Z" fill="black"/>
<path d="M801.501 275.202C805.651 275.202 809.612 275.108 813.385 274.919C817.157 274.73 820.175 274.447 822.439 274.07V242.086C820.741 241.709 818.195 241.332 814.799 240.954C811.404 240.577 808.292 240.388 805.462 240.388C801.501 240.388 797.729 240.671 794.145 241.237C790.749 241.615 787.731 242.464 785.091 243.785C782.45 245.105 780.375 246.898 778.866 249.162C777.357 251.427 776.603 254.257 776.603 257.653C776.603 264.258 778.772 268.881 783.11 271.522C787.637 273.975 793.768 275.202 801.501 275.202ZM798.106 151.797C810.555 151.797 820.93 153.212 829.229 156.043C837.529 158.873 844.131 162.93 849.035 168.213C854.128 173.497 857.712 179.912 859.787 187.46C861.862 195.008 862.899 203.404 862.899 212.65V300.392C856.863 301.713 848.469 303.223 837.717 304.921C826.966 306.808 813.951 307.751 798.672 307.751C789.052 307.751 780.281 306.902 772.358 305.204C764.625 303.506 757.929 300.77 752.27 296.996C746.611 293.033 742.273 287.939 739.255 281.712C736.236 275.485 734.727 267.843 734.727 258.786C734.727 250.106 736.425 242.747 739.82 236.709C743.404 230.67 748.12 225.859 753.967 222.274C759.815 218.689 766.511 216.141 774.056 214.632C781.601 212.933 789.429 212.084 797.54 212.084C803.01 212.084 807.82 212.367 811.97 212.933C816.308 213.311 819.798 213.877 822.439 214.632V210.669C822.439 203.499 820.27 197.744 815.931 193.404C811.593 189.064 804.048 186.894 793.296 186.894C786.128 186.894 779.055 187.46 772.075 188.592C765.096 189.536 759.06 190.951 753.967 192.838L748.592 158.873C751.044 158.118 754.062 157.364 757.646 156.609C761.418 155.665 765.474 154.911 769.812 154.344C774.15 153.59 778.677 153.024 783.393 152.646C788.297 152.08 793.202 151.797 798.106 151.797Z" fill="black"/>
<path d="M893.947 230.199C893.947 219.443 895.645 209.348 899.04 199.914C902.624 190.29 907.717 181.988 914.319 175.006C920.921 167.836 928.937 162.175 938.369 158.024C947.8 153.873 958.552 151.797 970.624 151.797C978.546 151.797 985.808 152.552 992.41 154.061C999.012 155.382 1005.43 157.364 1011.65 160.005L1002.88 193.687C998.918 192.177 994.579 190.856 989.864 189.724C985.148 188.592 979.867 188.026 974.019 188.026C961.57 188.026 952.233 191.894 946.008 199.631C939.972 207.367 936.954 217.556 936.954 230.199C936.954 243.596 939.783 253.974 945.442 261.333C951.29 268.692 961.381 272.371 975.717 272.371C980.81 272.371 986.28 271.9 992.127 270.956C997.975 270.013 1003.35 268.503 1008.25 266.428L1014.2 300.958C1009.29 303.034 1003.16 304.827 995.805 306.336C988.449 307.846 980.338 308.6 971.473 308.6C957.892 308.6 946.197 306.619 936.388 302.657C926.58 298.505 918.469 292.939 912.055 285.957C905.831 278.976 901.209 270.768 898.191 261.333C895.362 251.71 893.947 241.332 893.947 230.199Z" fill="black"/>
<path d="M1084.65 209.537C1088.8 205.008 1093.04 200.291 1097.38 195.385C1101.91 190.479 1106.25 185.667 1110.4 180.95C1114.55 176.044 1118.41 171.421 1122 167.081C1125.77 162.741 1128.98 158.967 1131.62 155.76H1181.7C1171.7 167.27 1161.89 178.308 1152.27 188.875C1142.84 199.253 1132.47 210.009 1121.15 221.142C1126.81 226.236 1132.65 232.369 1138.69 239.539C1144.73 246.521 1150.57 253.785 1156.23 261.333C1161.89 268.881 1167.08 276.428 1171.79 283.976C1176.51 291.524 1180.47 298.411 1183.68 304.638H1135.29C1132.28 299.732 1128.79 294.354 1124.83 288.505C1121.05 282.467 1117 276.523 1112.66 270.673C1108.32 264.635 1103.7 258.88 1098.8 253.408C1094.08 247.936 1089.36 243.313 1084.65 239.539V304.638H1042.49V91.7929L1084.65 85V209.537Z" fill="black"/>
<path d="M1344 155.76C1335.51 184.441 1326.65 211.33 1317.4 236.426C1308.16 261.522 1298.07 285.863 1287.13 309.45C1283.17 317.941 1279.21 325.111 1275.25 330.96C1271.28 336.999 1266.95 341.905 1262.23 345.678C1257.51 349.641 1252.14 352.471 1246.1 354.17C1240.26 356.057 1233.37 357 1225.45 357C1218.85 357 1212.72 356.34 1207.06 355.019C1201.59 353.887 1197.06 352.566 1193.48 351.056L1200.83 317.375C1205.17 318.884 1209.04 319.922 1212.43 320.488C1215.83 321.054 1219.41 321.337 1223.18 321.337C1230.73 321.337 1236.48 319.262 1240.44 315.11C1244.59 311.148 1248.08 305.581 1250.91 298.411C1241.29 279.542 1231.67 258.408 1222.05 235.01C1212.43 211.424 1203.38 185.007 1194.89 155.76H1239.6C1241.48 163.119 1243.65 171.138 1246.1 179.818C1248.74 188.309 1251.48 196.989 1254.31 205.857C1257.14 214.537 1259.97 223.028 1262.8 231.331C1265.81 239.633 1268.64 247.181 1271.28 253.974C1273.74 247.181 1276.28 239.633 1278.92 231.331C1281.56 223.028 1284.11 214.537 1286.56 205.857C1289.2 196.989 1291.66 188.309 1293.92 179.818C1296.37 171.138 1298.54 163.119 1300.43 155.76H1344Z" fill="black"/>
<defs>
<clipPath id="clip0_726_212">
<rect width="124" height="129" fill="white" transform="translate(141 232)"/>
</clipPath>
</defs>
</svg>
