<svg width="1385" height="441" viewBox="0 0 1385 441" fill="none" xmlns="http://www.w3.org/2000/svg">
<path fill-rule="evenodd" clip-rule="evenodd" d="M295.413 375.465C277.694 412.567 239.648 438 196 438C150.759 438 111.536 410.676 94.7286 371.356C40.1773 365.335 0 317.924 0 263.5C0 246.121 4.09734 229.456 11.4517 214.626C7.26575 202.953 5 190.424 5 177.5C5 119.862 50.0642 70.0894 109.541 69.018C108.523 62.1882 108.91 55.083 110.865 48.1343C111.441 32.6861 119.139 18.3398 131.758 9.32113C144.752 0.0345249 161.401 -2.4855 176.561 2.53952C181.816 4.28112 186.842 6.52973 191.58 9.22796C203.649 4.12668 216.902 1.25905 230.83 1.14678C245.369 1.02959 259.354 3.95936 272.073 9.38754C293.446 18.5091 305.717 41.1536 301.69 64.0401C301.126 67.2441 300.414 70.3975 299.562 73.4929C330.93 81.7991 356.059 104.206 369.137 132.97C374.058 126.394 379.777 120.419 386.25 115.122C398.184 105.354 411.708 98.6893 425.812 94.4303C440.305 89.8648 455.397 87.9639 470.545 87.9639C487.109 87.9639 503.505 89.715 518.893 94.2426C530.645 97.7002 542.159 102.018 552.496 107.659C565.878 114.96 574.729 127.615 577.568 141.689C581.26 141.017 585.055 140.392 588.934 139.806C603.058 137.477 617.565 136.364 632.395 136.364C648.845 136.364 666.046 138.483 682.095 144.922C689.988 147.959 697.647 151.934 704.757 156.998C710.274 151.635 717.096 147.483 724.882 145.086C728.969 143.828 733.249 142.775 737.467 141.868C742.669 140.606 747.956 139.634 753.286 138.906C758.632 138.008 764.057 137.338 769.544 136.876C776.046 136.159 782.57 135.797 789.106 135.797C804.934 135.797 821.193 137.544 836.368 142.719C850.591 147.57 864.601 155.417 876.126 167.606C885.954 158.695 897.096 151.6 909.226 146.261C926 138.878 943.793 135.797 961.624 135.797C968.935 135.797 976.248 136.256 983.49 137.282V125.793C983.49 101.249 1001.31 80.3344 1025.54 76.43L1067.69 69.6371C1082.16 67.3065 1096.92 71.4368 1108.07 80.9366C1119.22 90.4364 1125.65 104.35 1125.65 119V139.76H1172.7C1174.92 139.76 1177.13 139.908 1179.3 140.196C1181.47 139.907 1183.67 139.76 1185.89 139.76H1230.6C1241.91 139.76 1252.51 143.556 1261.01 150.075C1269.52 143.556 1280.12 139.76 1291.43 139.76H1335C1350.77 139.76 1365.62 147.202 1375.06 159.839C1384.5 172.476 1387.42 188.825 1382.94 203.949C1374.18 233.552 1364.98 261.48 1355.32 287.706C1345.62 314.039 1335.01 339.636 1323.49 364.489L1323.44 364.588C1318.75 374.639 1313.6 384.162 1307.84 392.703C1301.68 402.04 1294.15 410.876 1284.93 418.35C1275.03 426.557 1263.76 432.477 1251.56 436.04C1239.84 439.696 1227.86 441 1216.45 441C1206.75 441 1196.98 440.052 1187.34 437.859C1180.11 436.337 1172.43 434.235 1165.07 431.136C1147.37 423.682 1135.92 407.015 1134.6 388.638H1126.29C1117.25 388.638 1108.54 386.192 1100.98 381.756C1093.55 386.13 1084.89 388.638 1075.65 388.638H1033.49C1026.69 388.638 1020.21 387.282 1014.31 384.826C1008.56 386.661 1002.68 388.121 996.856 389.316C985.663 391.613 974.128 392.601 962.473 392.601C944.215 392.601 925.845 389.96 908.659 383.017C908.405 382.914 908.152 382.81 907.9 382.703C900.695 379.653 893.769 375.99 887.236 371.66C880.976 377.264 873.252 381.341 864.587 383.237C857.227 384.847 847.855 386.514 836.912 388.247C822.547 390.732 806.62 391.752 789.672 391.752C777.164 391.752 764.815 390.652 752.878 388.094C752.797 388.076 752.716 388.059 752.635 388.041C743.867 386.116 735.17 383.221 726.837 379.11C718.592 385.103 708.444 388.638 697.471 388.638H655.313C647.391 388.638 639.9 386.796 633.244 383.517C626.588 386.796 619.096 388.638 611.175 388.638H569.017C556.261 388.638 544.621 383.862 535.788 376C512.91 388.664 486.236 392.601 460.642 392.601C450.101 392.601 439.764 391.933 429.83 390.366C421.349 389.197 413.069 387.598 405.183 385.421C405.036 385.381 404.89 385.34 404.743 385.298C397.953 383.357 391.261 381.086 384.918 378.366C384.643 378.248 384.369 378.128 384.096 378.005C379.341 375.864 374.615 373.539 370.187 371.008C360.034 365.204 352.593 356.289 348.529 346.052C334.27 360.435 316.057 370.904 295.413 375.465Z" fill="white"/>
<ellipse cx="184.5" cy="227" rx="67.5" ry="67" fill="#7D64F2"/>
<ellipse cx="184.5" cy="227" rx="67.5" ry="67" fill="black" fill-opacity="0.8"/>
<mask id="mask0_728_422" style="mask-type:alpha" maskUnits="userSpaceOnUse" x="63" y="130" width="97" height="96">
<ellipse cx="111.5" cy="178" rx="48.5" ry="48" fill="#7D64F2"/>
</mask>
<g mask="url(#mask0_728_422)">
<ellipse cx="109.5" cy="177.5" rx="56.5" ry="58.5" fill="#7D64F2"/>
<ellipse cx="109.5" cy="177.5" rx="56.5" ry="58.5" fill="black" fill-opacity="0.79"/>
<path opacity="0.4" d="M114.991 205.521C77.3973 217.037 63.9996 185.644 62 168.508C65.1661 141.263 78.1972 90.5752 104.992 105.792C131.788 121.008 142.153 151.887 143.986 165.424C144.319 174.849 138.986 196.062 114.991 205.521Z" fill="#7D64F2"/>
<path d="M100.5 189.5C66.8999 195.1 65.1665 163.5 68.4999 147C70.6666 141.667 80.1 131 100.5 131C126 131 127 156.5 125.5 161.5C124 166.5 116.5 186 100.5 189.5Z" fill="#7D64F2"/>
<path opacity="0.5" d="M85.1713 166.171C79.9713 172.171 77.0047 169.338 76.1713 167.171C75.6713 164.004 75.9713 156.271 81.1713 150.671C90.6713 140.671 99.6713 139.171 105.171 138.171C110.671 137.171 120.171 140.671 109.171 145.671C98.1713 150.671 91.6713 158.671 85.1713 166.171Z" fill="white"/>
</g>
<mask id="mask1_728_422" style="mask-type:alpha" maskUnits="userSpaceOnUse" x="150" y="116" width="84" height="82">
<ellipse cx="192" cy="157" rx="42" ry="41" fill="#7D64F2"/>
</mask>
<g mask="url(#mask1_728_422)">
<ellipse cx="192.5" cy="159.5" rx="45.5" ry="44.5" fill="#7D64F2"/>
<ellipse cx="192.5" cy="159.5" rx="45.5" ry="44.5" fill="black" fill-opacity="0.79"/>
<path opacity="0.4" d="M197.991 187.521C160.397 199.037 147 167.644 145 150.508C148.166 123.263 161.197 72.5752 187.992 87.7917C214.788 103.008 225.5 132.5 225.5 148C225.5 163.5 221.986 178.062 197.991 187.521Z" fill="#7D64F2"/>
<path d="M183.5 171.5C149.9 177.1 148.167 145.5 151.5 129C153.667 123.667 163.1 113 183.5 113C209 113 214 135.5 209.5 147C206.37 155 199.5 168 183.5 171.5Z" fill="#7D64F2"/>
<path opacity="0.5" d="M168.171 148.171C162.971 154.171 160.005 151.338 159.171 149.171C158.671 146.004 158.971 138.271 164.171 132.671C173.671 122.671 182.671 121.171 188.171 120.171C193.671 119.171 203.171 122.671 192.171 127.671C181.171 132.671 174.671 140.671 168.171 148.171Z" fill="white"/>
</g>
<mask id="mask2_728_422" style="mask-type:alpha" maskUnits="userSpaceOnUse" x="58" y="216" width="101" height="99">
<ellipse cx="108.5" cy="265.5" rx="50.5" ry="49.5" fill="#7D64F2"/>
</mask>
<g mask="url(#mask2_728_422)">
<ellipse cx="104.5" cy="263.5" rx="56.5" ry="58.5" fill="#7D64F2"/>
<ellipse cx="104.5" cy="263.5" rx="56.5" ry="58.5" fill="black" fill-opacity="0.79"/>
<path opacity="0.4" d="M109.991 291.521C72.3973 303.037 58.9996 271.644 57 254.508C60.1661 227.263 73.1972 176.575 99.9925 191.792C126.788 207.008 137.5 236.5 137.5 252C137.5 267.5 133.986 282.062 109.991 291.521Z" fill="#7D64F2"/>
<path d="M95.4999 275.5C61.8999 281.1 60.1665 249.5 63.4999 233C65.6666 227.667 75.1 217 95.4999 217C121 217 126 239.5 121.5 251C118.37 259 111.5 272 95.4999 275.5Z" fill="#7D64F2"/>
<path opacity="0.5" d="M80.1713 252.171C74.9713 258.171 72.0047 255.338 71.1713 253.171C70.6713 250.004 70.9713 242.271 76.1713 236.671C85.6713 226.671 94.6713 225.171 100.171 224.171C105.671 223.171 115.171 226.671 104.171 231.671C93.1713 236.671 86.6713 244.671 80.1713 252.171Z" fill="white"/>
</g>
<mask id="mask3_728_422" style="mask-type:alpha" maskUnits="userSpaceOnUse" x="224" y="131" width="97" height="96">
<ellipse cx="272.5" cy="179" rx="48.5" ry="48" fill="#7D64F2"/>
</mask>
<g mask="url(#mask3_728_422)">
<ellipse cx="270.5" cy="178.5" rx="56.5" ry="58.5" fill="#7D64F2"/>
<ellipse cx="270.5" cy="178.5" rx="56.5" ry="58.5" fill="black" fill-opacity="0.79"/>
<path opacity="0.4" d="M275.991 206.521C238.397 218.037 225 186.644 223 169.508C226.166 142.263 239.197 91.5752 265.992 106.792C292.788 122.008 303.153 152.887 304.986 166.424C305.319 175.849 299.986 197.062 275.991 206.521Z" fill="#7D64F2"/>
<path d="M261.5 190.5C227.9 196.1 226.167 164.5 229.5 148C231.667 142.667 241.1 132 261.5 132C287 132 288 157.5 286.5 162.5C285 167.5 277.5 187 261.5 190.5Z" fill="#7D64F2"/>
<path opacity="0.5" d="M246.171 167.171C240.971 173.171 238.005 170.338 237.171 168.171C236.671 165.004 236.971 157.271 242.171 151.671C251.671 141.671 260.671 140.171 266.171 139.171C271.671 138.171 281.171 141.671 270.171 146.671C259.171 151.671 252.671 159.671 246.171 167.171Z" fill="white"/>
</g>
<mask id="mask4_728_422" style="mask-type:alpha" maskUnits="userSpaceOnUse" x="143" y="187" width="84" height="82">
<ellipse cx="185" cy="228" rx="42" ry="41" fill="#7D64F2"/>
</mask>
<g mask="url(#mask4_728_422)">
<ellipse cx="185.5" cy="230.5" rx="45.5" ry="44.5" fill="#7D64F2"/>
<ellipse cx="185.5" cy="230.5" rx="45.5" ry="44.5" fill="black" fill-opacity="0.79"/>
<path opacity="0.4" d="M190.991 258.521C153.397 270.037 140 238.644 138 221.508C141.166 194.263 154.197 143.575 180.992 158.792C207.788 174.008 218.5 203.5 218.5 219C218.5 234.5 214.986 249.062 190.991 258.521Z" fill="#7D64F2"/>
<path d="M176.5 242.5C142.9 248.1 141.167 216.5 144.5 200C146.667 194.667 156.1 184 176.5 184C202 184 207 206.5 202.5 218C199.37 226 192.5 239 176.5 242.5Z" fill="#7D64F2"/>
<path opacity="0.5" d="M161.171 219.171C155.971 225.171 153.005 222.338 152.171 220.171C151.671 217.004 151.971 209.271 157.171 203.671C166.671 193.671 175.671 192.171 181.171 191.171C186.671 190.171 196.171 193.671 185.171 198.671C174.171 203.671 167.671 211.671 161.171 219.171Z" fill="white"/>
</g>
<g clip-path="url(#clip0_728_422)">
<mask id="mask5_728_422" style="mask-type:alpha" maskUnits="userSpaceOnUse" x="134" y="267" width="124" height="124">
<circle cx="196" cy="329" r="62" fill="#7D64F2"/>
</mask>
<g mask="url(#mask5_728_422)">
<ellipse cx="194" cy="328.5" rx="60" ry="59.5" fill="#7D64F2"/>
<ellipse cx="194" cy="328.5" rx="60" ry="59.5" fill="black" fill-opacity="0.79"/>
<path opacity="0.4" d="M195.536 358.096C151.171 371.586 135.36 334.812 133 314.738C136.736 282.822 152.115 223.445 183.736 241.27C215.358 259.095 228 293.643 228 311.8C228 329.957 223.854 347.016 195.536 358.096Z" fill="#7D64F2"/>
<path d="M178.839 339.234C139.51 345.766 137.481 308.908 141.383 289.662C143.919 283.442 154.961 271 178.839 271C208.686 271 214.539 297.244 209.272 310.657C205.608 319.989 197.567 335.152 178.839 339.234Z" fill="#7D64F2"/>
<path opacity="0.5" d="M160.791 311.808C154.673 318.796 151.182 315.496 150.202 312.973C149.613 309.285 149.966 300.279 156.085 293.757C167.262 282.111 177.852 280.364 184.323 279.199C190.794 278.035 201.972 282.111 189.03 287.934C176.087 293.757 168.439 303.073 160.791 311.808Z" fill="white"/>
</g>
</g>
<mask id="mask6_728_422" style="mask-type:alpha" maskUnits="userSpaceOnUse" x="221" y="215" width="105" height="105">
<circle cx="273.5" cy="267.5" r="52.5" fill="#7D64F2"/>
</mask>
<g mask="url(#mask6_728_422)">
<ellipse cx="270" cy="267" rx="59" ry="61" fill="#7D64F2"/>
<ellipse cx="270" cy="267" rx="59" ry="61" fill="black" fill-opacity="0.79"/>
<path opacity="0.4" d="M272.991 292.521C235.397 304.037 222 272.644 220 255.508C223.166 228.263 236.197 177.575 262.992 192.792C289.788 208.008 300.5 237.5 300.5 253C300.5 268.5 296.986 283.062 272.991 292.521Z" fill="#7D64F2"/>
<path d="M258.5 276.5C224.9 282.1 223.167 250.5 226.5 234C228.667 228.667 238.1 218 258.5 218C284 218 289 240.5 284.5 252C281.37 260 274.5 273 258.5 276.5Z" fill="#7D64F2"/>
<path opacity="0.5" d="M243.171 253.171C237.971 259.171 235.005 256.338 234.171 254.171C233.671 251.004 233.971 243.271 239.171 237.671C248.671 227.671 257.671 226.171 263.171 225.171C268.671 224.171 278.171 227.671 267.171 232.671C256.171 237.671 249.671 245.671 243.171 253.171Z" fill="white"/>
</g>
<path fill-rule="evenodd" clip-rule="evenodd" d="M158.83 50C158.791 54.059 158.153 57.9747 157 61.6632C168.595 68.7633 176.332 81.5485 176.332 96.1407C176.332 97.7885 176.233 99.4133 176.041 101.009C179.748 95.5969 181.917 89.0477 181.917 81.9921C181.917 67.0889 172.242 54.4454 158.83 50Z" fill="#1A1A1A"/>
<path fill-rule="evenodd" clip-rule="evenodd" d="M198.671 99.1312C224.643 98.9219 246.101 80.0681 250.446 55.3743C243.937 52.5963 236.762 51.0841 229.233 51.1448C203.261 51.3541 181.802 70.2079 177.457 94.9018C177.965 95.1186 178.477 95.3277 178.993 95.5289C189.721 77.2046 208.776 64.3258 231.008 62.1259C214.008 68.8184 200.366 82.1486 193.248 98.9012C195.032 99.0678 196.841 99.146 198.671 99.1312Z" fill="#1A1A1A"/>
<path d="M458.642 304.956C464.867 304.956 469.96 304.485 473.921 303.541C478.07 302.409 481.371 300.994 483.824 299.296C486.276 297.409 487.973 295.239 488.916 292.786C489.86 290.333 490.331 287.597 490.331 284.578C490.331 278.162 487.313 272.879 481.277 268.727C475.241 264.387 464.867 259.764 450.154 254.858C443.74 252.594 437.327 250.047 430.914 247.216C424.501 244.197 418.747 240.518 413.655 236.178C408.562 231.649 404.412 226.272 401.205 220.045C397.999 213.629 396.395 205.893 396.395 196.836C396.395 187.778 398.093 179.665 401.488 172.494C404.883 165.135 409.693 158.908 415.918 153.814C422.143 148.719 429.688 144.851 438.553 142.209C447.419 139.379 457.416 137.964 468.545 137.964C481.749 137.964 493.161 139.379 502.781 142.209C512.4 145.04 520.323 148.153 526.547 151.549L513.815 186.363C508.345 183.533 502.215 181.08 495.424 179.004C488.822 176.74 480.806 175.608 471.374 175.608C460.811 175.608 453.172 177.117 448.456 180.136C443.929 182.967 441.666 187.401 441.666 193.439C441.666 197.024 442.514 200.043 444.212 202.496C445.91 204.949 448.268 207.214 451.286 209.289C454.492 211.176 458.076 212.969 462.037 214.667C466.187 216.177 470.714 217.78 475.618 219.479C485.804 223.253 494.67 227.026 502.215 230.8C509.76 234.385 515.984 238.631 520.889 243.537C525.982 248.443 529.754 254.198 532.206 260.802C534.658 267.407 535.884 275.426 535.884 284.861C535.884 303.164 529.471 317.41 516.645 327.599C503.818 337.6 484.484 342.6 458.642 342.6C449.965 342.6 442.137 342.034 435.158 340.902C428.179 339.959 421.954 338.732 416.484 337.223C411.202 335.713 406.581 334.109 402.62 332.411C398.847 330.713 395.641 329.109 393 327.599L405.449 292.503C411.297 295.71 418.465 298.635 426.953 301.277C435.63 303.73 446.193 304.956 458.642 304.956Z" fill="black"/>
<path d="M567.017 194.854C574.184 192.779 583.427 190.892 594.745 189.194C606.062 187.307 617.946 186.363 630.395 186.363C643.033 186.363 653.502 188.061 661.801 191.458C670.29 194.666 676.986 199.289 681.89 205.327C686.794 211.365 690.284 218.535 692.359 226.838C694.434 235.14 695.471 244.386 695.471 254.575V338.638H653.313V259.67C653.313 246.084 651.521 236.461 647.937 230.8C644.353 225.139 637.657 222.309 627.849 222.309C624.831 222.309 621.624 222.498 618.229 222.875C614.833 223.064 611.815 223.347 609.175 223.724V338.638H567.017V194.854Z" fill="black"/>
<path d="M790.501 309.202C794.651 309.202 798.612 309.108 802.385 308.919C806.157 308.73 809.175 308.447 811.439 308.07V276.086C809.741 275.709 807.195 275.332 803.799 274.954C800.404 274.577 797.292 274.388 794.462 274.388C790.501 274.388 786.729 274.671 783.145 275.237C779.749 275.615 776.731 276.464 774.091 277.785C771.45 279.105 769.375 280.898 767.866 283.162C766.357 285.427 765.603 288.257 765.603 291.653C765.603 298.258 767.772 302.881 772.11 305.522C776.637 307.975 782.768 309.202 790.501 309.202ZM787.106 185.797C799.555 185.797 809.93 187.212 818.229 190.043C826.529 192.873 833.131 196.93 838.035 202.213C843.128 207.497 846.712 213.912 848.787 221.46C850.862 229.008 851.899 237.404 851.899 246.65V334.392C845.863 335.713 837.469 337.223 826.717 338.921C815.966 340.808 802.951 341.751 787.672 341.751C778.052 341.751 769.281 340.902 761.358 339.204C753.625 337.506 746.929 334.77 741.27 330.996C735.611 327.033 731.273 321.939 728.255 315.712C725.236 309.485 723.727 301.843 723.727 292.786C723.727 284.106 725.425 276.747 728.82 270.709C732.404 264.67 737.12 259.859 742.967 256.274C748.815 252.689 755.511 250.141 763.056 248.632C770.601 246.933 778.429 246.084 786.54 246.084C792.01 246.084 796.82 246.367 800.97 246.933C805.308 247.311 808.798 247.877 811.439 248.632V244.669C811.439 237.499 809.27 231.744 804.931 227.404C800.593 223.064 793.048 220.894 782.296 220.894C775.128 220.894 768.055 221.46 761.075 222.592C754.096 223.536 748.06 224.951 742.967 226.838L737.592 192.873C740.044 192.118 743.062 191.364 746.646 190.609C750.418 189.665 754.474 188.911 758.812 188.344C763.15 187.59 767.677 187.024 772.393 186.646C777.297 186.08 782.202 185.797 787.106 185.797Z" fill="black"/>
<path d="M882.947 264.199C882.947 253.443 884.645 243.348 888.04 233.914C891.624 224.29 896.717 215.988 903.319 209.006C909.921 201.836 917.937 196.175 927.369 192.024C936.8 187.873 947.552 185.797 959.624 185.797C967.546 185.797 974.808 186.552 981.41 188.061C988.012 189.382 994.425 191.364 1000.65 194.005L991.879 227.687C987.918 226.177 983.579 224.856 978.864 223.724C974.148 222.592 968.867 222.026 963.019 222.026C950.57 222.026 941.233 225.894 935.008 233.631C928.972 241.367 925.954 251.556 925.954 264.199C925.954 277.596 928.783 287.974 934.442 295.333C940.29 302.692 950.381 306.371 964.717 306.371C969.81 306.371 975.28 305.9 981.127 304.956C986.975 304.013 992.35 302.503 997.255 300.428L1003.2 334.958C998.292 337.034 992.162 338.827 984.805 340.336C977.449 341.846 969.338 342.6 960.473 342.6C946.892 342.6 935.197 340.619 925.388 336.657C915.58 332.505 907.469 326.939 901.055 319.957C894.831 312.976 890.209 304.768 887.191 295.333C884.362 285.71 882.947 275.332 882.947 264.199Z" fill="black"/>
<path d="M1073.65 243.537C1077.8 239.008 1082.04 234.291 1086.38 229.385C1090.91 224.479 1095.25 219.667 1099.4 214.95C1103.55 210.044 1107.41 205.421 1111 201.081C1114.77 196.741 1117.98 192.967 1120.62 189.76H1170.7C1160.7 201.27 1150.89 212.308 1141.27 222.875C1131.84 233.253 1121.47 244.009 1110.15 255.142C1115.81 260.236 1121.65 266.369 1127.69 273.539C1133.73 280.521 1139.57 287.785 1145.23 295.333C1150.89 302.881 1156.08 310.428 1160.79 317.976C1165.51 325.524 1169.47 332.411 1172.68 338.638H1124.29C1121.28 333.732 1117.79 328.354 1113.83 322.505C1110.05 316.467 1106 310.523 1101.66 304.673C1097.32 298.635 1092.7 292.88 1087.8 287.408C1083.08 281.936 1078.36 277.313 1073.65 273.539V338.638H1031.49V125.793L1073.65 119V243.537Z" fill="black"/>
<path d="M1333 189.76C1324.51 218.441 1315.65 245.33 1306.4 270.426C1297.16 295.522 1287.07 319.863 1276.13 343.45C1272.17 351.941 1268.21 359.111 1264.25 364.96C1260.28 370.999 1255.95 375.905 1251.23 379.678C1246.51 383.641 1241.14 386.471 1235.1 388.17C1229.26 390.057 1222.37 391 1214.45 391C1207.85 391 1201.72 390.34 1196.06 389.019C1190.59 387.887 1186.06 386.566 1182.48 385.056L1189.83 351.375C1194.17 352.884 1198.04 353.922 1201.43 354.488C1204.83 355.054 1208.41 355.337 1212.18 355.337C1219.73 355.337 1225.48 353.262 1229.44 349.11C1233.59 345.148 1237.08 339.581 1239.91 332.411C1230.29 313.542 1220.67 292.408 1211.05 269.01C1201.43 245.424 1192.38 219.007 1183.89 189.76H1228.6C1230.48 197.119 1232.65 205.138 1235.1 213.818C1237.74 222.309 1240.48 230.989 1243.31 239.857C1246.14 248.537 1248.97 257.028 1251.8 265.331C1254.81 273.633 1257.64 281.181 1260.28 287.974C1262.74 281.181 1265.28 273.633 1267.92 265.331C1270.56 257.028 1273.11 248.537 1275.56 239.857C1278.2 230.989 1280.66 222.309 1282.92 213.818C1285.37 205.138 1287.54 197.119 1289.43 189.76H1333Z" fill="black"/>
<defs>
<clipPath id="clip0_728_422">
<rect width="124" height="129" fill="white" transform="translate(130 266)"/>
</clipPath>
</defs>
</svg>
