<svg width="512" height="512" viewBox="0 0 512 512" fill="none" xmlns="http://www.w3.org/2000/svg">
    <path fill-rule="evenodd" clip-rule="evenodd"
        d="M166.914 95.5703C94.3361 129.227 44 202.735 44 288C44 405.084 138.916 500 256 500C373.084 500 468 405.084 468 288C468 236.339 449.521 188.994 418.813 152.213C407.851 161.624 395.608 169.584 382.382 175.798C408.896 205.642 425 244.94 425 288C425 381.336 349.336 457 256 457C162.664 457 87 381.336 87 288C87 218.158 129.367 158.211 189.803 132.457C180.605 121.321 172.876 108.926 166.914 95.5703Z"
        fill="#1A1A1A" />
    <path fill-rule="evenodd" clip-rule="evenodd"
        d="M193.995 18.5769C193.889 29.4784 192.175 39.9953 189.079 49.9018C220.221 68.9707 241 103.309 241 142.5C241 146.925 240.735 151.289 240.22 155.576C250.176 141.039 256 123.45 256 104.5C256 64.4735 230.016 30.5163 193.995 18.5769Z"
        fill="#1A1A1A" />
    <path fill-rule="evenodd" clip-rule="evenodd"
        d="M310.328 156C389.217 156 454.854 99.2611 468.656 24.3653C448.954 15.7684 427.198 11 404.328 11C325.439 11 259.803 67.7389 246 142.635C246.329 142.778 246.658 142.921 246.988 143.062C272.59 99.3655 318.206 68.8172 371.252 64C329.937 79.8804 296.827 112.302 280.031 153.154C289.844 155.022 299.972 156 310.328 156Z"
        fill="#1A1A1A" />
    <ellipse cx="251.5" cy="275" rx="67.5" ry="67" fill="#7D64F2" />
    <ellipse cx="251.5" cy="275" rx="67.5" ry="67" fill="black" fill-opacity="0.8" />
    <mask id="mask0_723_211" style="mask-type:alpha" maskUnits="userSpaceOnUse" x="130" y="178" width="97" height="96">
        <ellipse cx="178.5" cy="226" rx="48.5" ry="48" fill="#7D64F2" />
    </mask>
    <g mask="url(#mask0_723_211)">
        <ellipse cx="176.5" cy="225.5" rx="56.5" ry="58.5" fill="#7D64F2" />
        <ellipse cx="176.5" cy="225.5" rx="56.5" ry="58.5" fill="black" fill-opacity="0.79" />
        <path opacity="0.4"
            d="M181.991 253.521C144.397 265.037 131 233.644 129 216.508C132.166 189.263 145.197 138.575 171.992 153.792C198.788 169.008 209.153 199.887 210.986 213.424C211.319 222.849 205.986 244.062 181.991 253.521Z"
            fill="#7D64F2" />
        <path
            d="M167.5 237.5C133.9 243.1 132.167 211.5 135.5 195C137.667 189.667 147.1 179 167.5 179C193 179 194 204.5 192.5 209.5C191 214.5 183.5 234 167.5 237.5Z"
            fill="#7D64F2" />
        <path opacity="0.5"
            d="M152.171 214.171C146.971 220.171 144.005 217.338 143.171 215.171C142.671 212.004 142.971 204.271 148.171 198.671C157.671 188.671 166.671 187.171 172.171 186.171C177.671 185.171 187.171 188.671 176.171 193.671C165.171 198.671 158.671 206.671 152.171 214.171Z"
            fill="white" />
    </g>
    <mask id="mask1_723_211" style="mask-type:alpha" maskUnits="userSpaceOnUse" x="217" y="164" width="84" height="82">
        <ellipse cx="259" cy="205" rx="42" ry="41" fill="#7D64F2" />
    </mask>
    <g mask="url(#mask1_723_211)">
        <ellipse cx="259.5" cy="207.5" rx="45.5" ry="44.5" fill="#7D64F2" />
        <ellipse cx="259.5" cy="207.5" rx="45.5" ry="44.5" fill="black" fill-opacity="0.79" />
        <path opacity="0.4"
            d="M264.991 235.521C227.397 247.037 214 215.644 212 198.508C215.166 171.263 228.197 120.575 254.992 135.792C281.788 151.008 292.5 180.5 292.5 196C292.5 211.5 288.986 226.062 264.991 235.521Z"
            fill="#7D64F2" />
        <path
            d="M250.5 219.5C216.9 225.1 215.167 193.5 218.5 177C220.667 171.667 230.1 161 250.5 161C276 161 281 183.5 276.5 195C273.37 203 266.5 216 250.5 219.5Z"
            fill="#7D64F2" />
        <path opacity="0.5"
            d="M235.171 196.171C229.971 202.171 227.005 199.338 226.171 197.171C225.671 194.004 225.971 186.271 231.171 180.671C240.671 170.671 249.671 169.171 255.171 168.171C260.671 167.171 270.171 170.671 259.171 175.671C248.171 180.671 241.671 188.671 235.171 196.171Z"
            fill="white" />
    </g>
    <mask id="mask2_723_211" style="mask-type:alpha" maskUnits="userSpaceOnUse" x="125" y="264" width="101" height="99">
        <ellipse cx="175.5" cy="313.5" rx="50.5" ry="49.5" fill="#7D64F2" />
    </mask>
    <g mask="url(#mask2_723_211)">
        <ellipse cx="171.5" cy="311.5" rx="56.5" ry="58.5" fill="#7D64F2" />
        <ellipse cx="171.5" cy="311.5" rx="56.5" ry="58.5" fill="black" fill-opacity="0.79" />
        <path opacity="0.4"
            d="M176.991 339.521C139.397 351.037 126 319.644 124 302.508C127.166 275.263 140.197 224.575 166.992 239.792C193.788 255.008 204.5 284.5 204.5 300C204.5 315.5 200.986 330.062 176.991 339.521Z"
            fill="#7D64F2" />
        <path
            d="M162.5 323.5C128.9 329.1 127.167 297.5 130.5 281C132.667 275.667 142.1 265 162.5 265C188 265 193 287.5 188.5 299C185.37 307 178.5 320 162.5 323.5Z"
            fill="#7D64F2" />
        <path opacity="0.5"
            d="M147.171 300.171C141.971 306.171 139.005 303.338 138.171 301.171C137.671 298.004 137.971 290.271 143.171 284.671C152.671 274.671 161.671 273.171 167.171 272.171C172.671 271.171 182.171 274.671 171.171 279.671C160.171 284.671 153.671 292.671 147.171 300.171Z"
            fill="white" />
    </g>
    <mask id="mask3_723_211" style="mask-type:alpha" maskUnits="userSpaceOnUse" x="291" y="179" width="97" height="96">
        <ellipse cx="339.5" cy="227" rx="48.5" ry="48" fill="#7D64F2" />
    </mask>
    <g mask="url(#mask3_723_211)">
        <ellipse cx="337.5" cy="226.5" rx="56.5" ry="58.5" fill="#7D64F2" />
        <ellipse cx="337.5" cy="226.5" rx="56.5" ry="58.5" fill="black" fill-opacity="0.79" />
        <path opacity="0.4"
            d="M342.991 254.521C305.397 266.037 292 234.644 290 217.508C293.166 190.263 306.197 139.575 332.992 154.792C359.788 170.008 370.153 200.887 371.986 214.424C372.319 223.849 366.986 245.062 342.991 254.521Z"
            fill="#7D64F2" />
        <path
            d="M328.5 238.5C294.9 244.1 293.167 212.5 296.5 196C298.667 190.667 308.1 180 328.5 180C354 180 355 205.5 353.5 210.5C352 215.5 344.5 235 328.5 238.5Z"
            fill="#7D64F2" />
        <path opacity="0.5"
            d="M313.171 215.171C307.971 221.171 305.005 218.338 304.171 216.171C303.671 213.004 303.971 205.271 309.171 199.671C318.671 189.671 327.671 188.171 333.171 187.171C338.671 186.171 348.171 189.671 337.171 194.671C326.171 199.671 319.671 207.671 313.171 215.171Z"
            fill="white" />
    </g>
    <mask id="mask4_723_211" style="mask-type:alpha" maskUnits="userSpaceOnUse" x="210" y="235" width="84" height="82">
        <ellipse cx="252" cy="276" rx="42" ry="41" fill="#7D64F2" />
    </mask>
    <g mask="url(#mask4_723_211)">
        <ellipse cx="252.5" cy="278.5" rx="45.5" ry="44.5" fill="#7D64F2" />
        <ellipse cx="252.5" cy="278.5" rx="45.5" ry="44.5" fill="black" fill-opacity="0.79" />
        <path opacity="0.4"
            d="M257.991 306.521C220.397 318.037 207 286.644 205 269.508C208.166 242.263 221.197 191.575 247.992 206.792C274.788 222.008 285.5 251.5 285.5 267C285.5 282.5 281.986 297.062 257.991 306.521Z"
            fill="#7D64F2" />
        <path
            d="M243.5 290.5C209.9 296.1 208.167 264.5 211.5 248C213.667 242.667 223.1 232 243.5 232C269 232 274 254.5 269.5 266C266.37 274 259.5 287 243.5 290.5Z"
            fill="#7D64F2" />
        <path opacity="0.5"
            d="M228.171 267.171C222.971 273.171 220.005 270.338 219.171 268.171C218.671 265.004 218.971 257.271 224.171 251.671C233.671 241.671 242.671 240.171 248.171 239.171C253.671 238.171 263.171 241.671 252.171 246.671C241.171 251.671 234.671 259.671 228.171 267.171Z"
            fill="white" />
    </g>
    <g clip-path="url(#clip0_723_211)">
        <mask id="mask5_723_211" style="mask-type:alpha" maskUnits="userSpaceOnUse" x="201" y="315" width="124"
            height="124">
            <circle cx="263" cy="377" r="62" fill="#7D64F2" />
        </mask>
        <g mask="url(#mask5_723_211)">
            <ellipse cx="261" cy="376.5" rx="60" ry="59.5" fill="#7D64F2" />
            <ellipse cx="261" cy="376.5" rx="60" ry="59.5" fill="black" fill-opacity="0.79" />
            <path opacity="0.4"
                d="M262.536 406.096C218.171 419.586 202.36 382.812 200 362.738C203.736 330.822 219.115 271.445 250.736 289.27C282.358 307.095 295 341.643 295 359.8C295 377.957 290.854 395.016 262.536 406.096Z"
                fill="#7D64F2" />
            <path
                d="M245.839 387.234C206.51 393.766 204.481 356.908 208.383 337.662C210.919 331.442 221.961 319 245.839 319C275.686 319 281.539 345.244 276.272 358.657C272.608 367.989 264.567 383.152 245.839 387.234Z"
                fill="#7D64F2" />
            <path opacity="0.5"
                d="M227.791 359.808C221.673 366.796 218.182 363.496 217.202 360.973C216.613 357.285 216.966 348.279 223.085 341.757C234.262 330.111 244.852 328.364 251.323 327.199C257.794 326.035 268.972 330.111 256.03 335.934C243.087 341.757 235.439 351.073 227.791 359.808Z"
                fill="white" />
        </g>
    </g>
    <mask id="mask6_723_211" style="mask-type:alpha" maskUnits="userSpaceOnUse" x="288" y="263" width="105"
        height="105">
        <circle cx="340.5" cy="315.5" r="52.5" fill="#7D64F2" />
    </mask>
    <g mask="url(#mask6_723_211)">
        <ellipse cx="337" cy="315" rx="59" ry="61" fill="#7D64F2" />
        <ellipse cx="337" cy="315" rx="59" ry="61" fill="black" fill-opacity="0.79" />
        <path opacity="0.4"
            d="M339.991 340.521C302.397 352.037 289 320.644 287 303.508C290.166 276.263 303.197 225.575 329.992 240.792C356.788 256.008 367.5 285.5 367.5 301C367.5 316.5 363.986 331.062 339.991 340.521Z"
            fill="#7D64F2" />
        <path
            d="M325.5 324.5C291.9 330.1 290.167 298.5 293.5 282C295.667 276.667 305.1 266 325.5 266C351 266 356 288.5 351.5 300C348.37 308 341.5 321 325.5 324.5Z"
            fill="#7D64F2" />
        <path opacity="0.5"
            d="M310.171 301.171C304.971 307.171 302.005 304.338 301.171 302.171C300.671 299.004 300.971 291.271 306.171 285.671C315.671 275.671 324.671 274.171 330.171 273.171C335.671 272.171 345.171 275.671 334.171 280.671C323.171 285.671 316.671 293.671 310.171 301.171Z"
            fill="white" />
    </g>
    <defs>
        <clipPath id="clip0_723_211">
            <rect width="124" height="129" fill="white" transform="translate(197 314)" />
        </clipPath>
    </defs>
</svg>