<svg width="1430" height="440" viewBox="0 0 1430 440" fill="none" xmlns="http://www.w3.org/2000/svg">
    <path fill-rule="evenodd" clip-rule="evenodd"
        d="M157.165 45C157.097 52.0194 155.993 58.7911 154 65.1697C174.052 77.4481 187.431 99.558 187.431 124.793C187.431 127.642 187.261 130.452 186.929 133.212C193.34 123.852 197.09 112.527 197.09 100.325C197.09 74.5524 180.358 52.6876 157.165 45Z"
        fill="#1A1A1A" />
    <path fill-rule="evenodd" clip-rule="evenodd"
        d="M226.063 129.965C270.977 129.603 308.086 96.9979 315.6 54.2939C304.344 49.4898 291.935 46.8748 278.915 46.9797C234.001 47.3418 196.892 79.9463 189.377 122.65C190.256 123.025 191.141 123.387 192.033 123.735C210.586 92.0459 243.538 69.7741 281.986 65.97C252.586 77.5434 228.995 100.596 216.686 129.567C219.77 129.855 222.898 129.99 226.063 129.965Z"
        fill="#1A1A1A" />
    <ellipse cx="195.5" cy="256" rx="67.5" ry="67" fill="#7D64F2" />
    <ellipse cx="195.5" cy="256" rx="67.5" ry="67" fill="black" fill-opacity="0.8" />
    <mask id="mask0_726_212" style="mask-type:alpha" maskUnits="userSpaceOnUse" x="74" y="159" width="97" height="96">
        <ellipse cx="122.5" cy="207" rx="48.5" ry="48" fill="#7D64F2" />
    </mask>
    <g mask="url(#mask0_726_212)">
        <ellipse cx="120.5" cy="206.5" rx="56.5" ry="58.5" fill="#7D64F2" />
        <ellipse cx="120.5" cy="206.5" rx="56.5" ry="58.5" fill="black" fill-opacity="0.79" />
        <path opacity="0.4"
            d="M125.991 234.521C88.3973 246.037 74.9996 214.644 73 197.508C76.1661 170.263 89.1972 119.575 115.992 134.792C142.788 150.008 153.153 180.887 154.986 194.424C155.319 203.849 149.986 225.062 125.991 234.521Z"
            fill="#7D64F2" />
        <path
            d="M111.5 218.5C77.8999 224.1 76.1665 192.5 79.4999 176C81.6666 170.667 91.1 160 111.5 160C137 160 138 185.5 136.5 190.5C135 195.5 127.5 215 111.5 218.5Z"
            fill="#7D64F2" />
        <path opacity="0.5"
            d="M96.1713 195.171C90.9713 201.171 88.0047 198.338 87.1713 196.171C86.6713 193.004 86.9713 185.271 92.1713 179.671C101.671 169.671 110.671 168.171 116.171 167.171C121.671 166.171 131.171 169.671 120.171 174.671C109.171 179.671 102.671 187.671 96.1713 195.171Z"
            fill="white" />
    </g>
    <mask id="mask1_726_212" style="mask-type:alpha" maskUnits="userSpaceOnUse" x="161" y="145" width="84" height="82">
        <ellipse cx="203" cy="186" rx="42" ry="41" fill="#7D64F2" />
    </mask>
    <g mask="url(#mask1_726_212)">
        <ellipse cx="203.5" cy="188.5" rx="45.5" ry="44.5" fill="#7D64F2" />
        <ellipse cx="203.5" cy="188.5" rx="45.5" ry="44.5" fill="black" fill-opacity="0.79" />
        <path opacity="0.4"
            d="M208.991 216.521C171.397 228.037 158 196.644 156 179.508C159.166 152.263 172.197 101.575 198.992 116.792C225.788 132.008 236.5 161.5 236.5 177C236.5 192.5 232.986 207.062 208.991 216.521Z"
            fill="#7D64F2" />
        <path
            d="M194.5 200.5C160.9 206.1 159.167 174.5 162.5 158C164.667 152.667 174.1 142 194.5 142C220 142 225 164.5 220.5 176C217.37 184 210.5 197 194.5 200.5Z"
            fill="#7D64F2" />
        <path opacity="0.5"
            d="M179.171 177.171C173.971 183.171 171.005 180.338 170.171 178.171C169.671 175.004 169.971 167.271 175.171 161.671C184.671 151.671 193.671 150.171 199.171 149.171C204.671 148.171 214.171 151.671 203.171 156.671C192.171 161.671 185.671 169.671 179.171 177.171Z"
            fill="white" />
    </g>
    <mask id="mask2_726_212" style="mask-type:alpha" maskUnits="userSpaceOnUse" x="69" y="245" width="101" height="99">
        <ellipse cx="119.5" cy="294.5" rx="50.5" ry="49.5" fill="#7D64F2" />
    </mask>
    <g mask="url(#mask2_726_212)">
        <ellipse cx="115.5" cy="292.5" rx="56.5" ry="58.5" fill="#7D64F2" />
        <ellipse cx="115.5" cy="292.5" rx="56.5" ry="58.5" fill="black" fill-opacity="0.79" />
        <path opacity="0.4"
            d="M120.991 320.521C83.3973 332.037 69.9996 300.644 68 283.508C71.1661 256.263 84.1972 205.575 110.992 220.792C137.788 236.008 148.5 265.5 148.5 281C148.5 296.5 144.986 311.062 120.991 320.521Z"
            fill="#7D64F2" />
        <path
            d="M106.5 304.5C72.8999 310.1 71.1665 278.5 74.4999 262C76.6666 256.667 86.1 246 106.5 246C132 246 137 268.5 132.5 280C129.37 288 122.5 301 106.5 304.5Z"
            fill="#7D64F2" />
        <path opacity="0.5"
            d="M91.1713 281.171C85.9713 287.171 83.0047 284.338 82.1713 282.171C81.6713 279.004 81.9713 271.271 87.1713 265.671C96.6713 255.671 105.671 254.171 111.171 253.171C116.671 252.171 126.171 255.671 115.171 260.671C104.171 265.671 97.6713 273.671 91.1713 281.171Z"
            fill="white" />
    </g>
    <mask id="mask3_726_212" style="mask-type:alpha" maskUnits="userSpaceOnUse" x="235" y="160" width="97" height="96">
        <ellipse cx="283.5" cy="208" rx="48.5" ry="48" fill="#7D64F2" />
    </mask>
    <g mask="url(#mask3_726_212)">
        <ellipse cx="281.5" cy="207.5" rx="56.5" ry="58.5" fill="#7D64F2" />
        <ellipse cx="281.5" cy="207.5" rx="56.5" ry="58.5" fill="black" fill-opacity="0.79" />
        <path opacity="0.4"
            d="M286.991 235.521C249.397 247.037 236 215.644 234 198.508C237.166 171.263 250.197 120.575 276.992 135.792C303.788 151.008 314.153 181.887 315.986 195.424C316.319 204.849 310.986 226.062 286.991 235.521Z"
            fill="#7D64F2" />
        <path
            d="M272.5 219.5C238.9 225.1 237.167 193.5 240.5 177C242.667 171.667 252.1 161 272.5 161C298 161 299 186.5 297.5 191.5C296 196.5 288.5 216 272.5 219.5Z"
            fill="#7D64F2" />
        <path opacity="0.5"
            d="M257.171 196.171C251.971 202.171 249.005 199.338 248.171 197.171C247.671 194.004 247.971 186.271 253.171 180.671C262.671 170.671 271.671 169.171 277.171 168.171C282.671 167.171 292.171 170.671 281.171 175.671C270.171 180.671 263.671 188.671 257.171 196.171Z"
            fill="white" />
    </g>
    <mask id="mask4_726_212" style="mask-type:alpha" maskUnits="userSpaceOnUse" x="154" y="216" width="84" height="82">
        <ellipse cx="196" cy="257" rx="42" ry="41" fill="#7D64F2" />
    </mask>
    <g mask="url(#mask4_726_212)">
        <ellipse cx="196.5" cy="259.5" rx="45.5" ry="44.5" fill="#7D64F2" />
        <ellipse cx="196.5" cy="259.5" rx="45.5" ry="44.5" fill="black" fill-opacity="0.79" />
        <path opacity="0.4"
            d="M201.991 287.521C164.397 299.037 151 267.644 149 250.508C152.166 223.263 165.197 172.575 191.992 187.792C218.788 203.008 229.5 232.5 229.5 248C229.5 263.5 225.986 278.062 201.991 287.521Z"
            fill="#7D64F2" />
        <path
            d="M187.5 271.5C153.9 277.1 152.167 245.5 155.5 229C157.667 223.667 167.1 213 187.5 213C213 213 218 235.5 213.5 247C210.37 255 203.5 268 187.5 271.5Z"
            fill="#7D64F2" />
        <path opacity="0.5"
            d="M172.171 248.171C166.971 254.171 164.005 251.338 163.171 249.171C162.671 246.004 162.971 238.271 168.171 232.671C177.671 222.671 186.671 221.171 192.171 220.171C197.671 219.171 207.171 222.671 196.171 227.671C185.171 232.671 178.671 240.671 172.171 248.171Z"
            fill="white" />
    </g>
    <g clip-path="url(#clip0_726_212)">
        <mask id="mask5_726_212" style="mask-type:alpha" maskUnits="userSpaceOnUse" x="145" y="296" width="124"
            height="124">
            <circle cx="207" cy="358" r="62" fill="#7D64F2" />
        </mask>
        <g mask="url(#mask5_726_212)">
            <ellipse cx="205" cy="357.5" rx="60" ry="59.5" fill="#7D64F2" />
            <ellipse cx="205" cy="357.5" rx="60" ry="59.5" fill="black" fill-opacity="0.79" />
            <path opacity="0.4"
                d="M206.536 387.096C162.171 400.586 146.36 363.812 144 343.738C147.736 311.822 163.115 252.445 194.736 270.27C226.358 288.095 239 322.643 239 340.8C239 358.957 234.854 376.016 206.536 387.096Z"
                fill="#7D64F2" />
            <path
                d="M189.839 368.234C150.51 374.766 148.481 337.908 152.383 318.662C154.919 312.442 165.961 300 189.839 300C219.686 300 225.539 326.244 220.272 339.657C216.608 348.989 208.567 364.152 189.839 368.234Z"
                fill="#7D64F2" />
            <path opacity="0.5"
                d="M171.791 340.808C165.673 347.796 162.182 344.496 161.202 341.973C160.613 338.285 160.966 329.279 167.085 322.757C178.262 311.111 188.852 309.364 195.323 308.199C201.794 307.035 212.972 311.111 200.03 316.934C187.087 322.757 179.439 332.073 171.791 340.808Z"
                fill="white" />
        </g>
    </g>
    <mask id="mask6_726_212" style="mask-type:alpha" maskUnits="userSpaceOnUse" x="232" y="244" width="105"
        height="105">
        <circle cx="284.5" cy="296.5" r="52.5" fill="#7D64F2" />
    </mask>
    <g mask="url(#mask6_726_212)">
        <ellipse cx="281" cy="296" rx="59" ry="61" fill="#7D64F2" />
        <ellipse cx="281" cy="296" rx="59" ry="61" fill="black" fill-opacity="0.79" />
        <path opacity="0.4"
            d="M283.991 321.521C246.397 333.037 233 301.644 231 284.508C234.166 257.263 247.197 206.575 273.992 221.792C300.788 237.008 311.5 266.5 311.5 282C311.5 297.5 307.986 312.062 283.991 321.521Z"
            fill="#7D64F2" />
        <path
            d="M269.5 305.5C235.9 311.1 234.167 279.5 237.5 263C239.667 257.667 249.1 247 269.5 247C295 247 300 269.5 295.5 281C292.37 289 285.5 302 269.5 305.5Z"
            fill="#7D64F2" />
        <path opacity="0.5"
            d="M254.171 282.171C248.971 288.171 246.005 285.338 245.171 283.171C244.671 280.004 244.971 272.271 250.171 266.671C259.671 256.671 268.671 255.171 274.171 254.171C279.671 253.171 289.171 256.671 278.171 261.671C267.171 266.671 260.671 274.671 254.171 282.171Z"
            fill="white" />
    </g>
    <path
        d="M491.438 269.956C497.662 269.956 502.755 269.485 506.716 268.541C510.866 267.409 514.167 265.994 516.619 264.296C519.071 262.409 520.769 260.239 521.712 257.786C522.655 255.333 523.127 252.597 523.127 249.578C523.127 243.162 520.109 237.879 514.073 233.727C508.037 229.387 497.662 224.764 482.949 219.858C476.536 217.594 470.123 215.047 463.71 212.216C457.296 209.197 451.543 205.518 446.45 201.178C441.357 196.649 437.208 191.272 434.001 185.045C430.794 178.629 429.191 170.893 429.191 161.836C429.191 152.778 430.889 144.665 434.284 137.494C437.679 130.135 442.489 123.908 448.714 118.814C454.938 113.719 462.483 109.851 471.349 107.209C480.214 104.379 490.212 102.964 501.34 102.964C514.544 102.964 525.956 104.379 535.576 107.209C545.196 110.04 553.118 113.153 559.343 116.549L546.611 151.363C541.141 148.533 535.01 146.08 528.22 144.004C521.618 141.74 513.601 140.608 504.17 140.608C493.607 140.608 485.967 142.117 481.252 145.136C476.725 147.967 474.461 152.401 474.461 158.439C474.461 162.024 475.31 165.043 477.008 167.496C478.705 169.949 481.063 172.214 484.081 174.289C487.288 176.176 490.872 177.969 494.833 179.667C498.983 181.177 503.51 182.78 508.414 184.479C518.6 188.253 527.465 192.026 535.01 195.8C542.555 199.385 548.78 203.631 553.684 208.537C558.777 213.443 562.55 219.198 565.002 225.802C567.454 232.407 568.68 240.426 568.68 249.861C568.68 268.164 562.267 282.41 549.44 292.599C536.614 302.6 517.279 307.6 491.438 307.6C482.761 307.6 474.933 307.034 467.954 305.902C460.974 304.959 454.75 303.732 449.28 302.223C443.998 300.713 439.377 299.109 435.416 297.411C431.643 295.713 428.436 294.109 425.796 292.599L438.245 257.503C444.092 260.71 451.26 263.635 459.748 266.277C468.425 268.73 478.988 269.956 491.438 269.956Z"
        fill="black" />
    <path
        d="M599.812 159.854C606.98 157.779 616.223 155.892 627.54 154.194C638.858 152.307 650.741 151.363 663.191 151.363C675.829 151.363 686.297 153.061 694.597 156.458C703.085 159.666 709.781 164.289 714.686 170.327C719.59 176.365 723.08 183.535 725.154 191.838C727.229 200.14 728.267 209.386 728.267 219.575V303.638H686.109V224.67C686.109 211.084 684.317 201.461 680.733 195.8C677.149 190.139 670.453 187.309 660.644 187.309C657.626 187.309 654.42 187.498 651.024 187.875C647.629 188.064 644.611 188.347 641.97 188.724V303.638H599.812V159.854Z"
        fill="black" />
    <path
        d="M823.297 274.202C827.447 274.202 831.408 274.108 835.18 273.919C838.953 273.73 841.971 273.447 844.234 273.07V241.086C842.537 240.709 839.99 240.332 836.595 239.954C833.2 239.577 830.087 239.388 827.258 239.388C823.297 239.388 819.524 239.671 815.94 240.237C812.545 240.615 809.527 241.464 806.886 242.785C804.246 244.105 802.171 245.898 800.662 248.162C799.153 250.427 798.398 253.257 798.398 256.653C798.398 263.258 800.567 267.881 804.906 270.522C809.433 272.975 815.563 274.202 823.297 274.202ZM819.902 150.797C832.351 150.797 842.725 152.212 851.025 155.043C859.324 157.873 865.926 161.93 870.831 167.213C875.924 172.497 879.507 178.912 881.582 186.46C883.657 194.008 884.695 202.404 884.695 211.65V299.392C878.659 300.713 870.265 302.223 859.513 303.921C848.761 305.808 835.746 306.751 820.467 306.751C810.847 306.751 802.076 305.902 794.154 304.204C786.42 302.506 779.724 299.77 774.065 295.996C768.407 292.033 764.068 286.939 761.05 280.712C758.032 274.485 756.523 266.843 756.523 257.786C756.523 249.106 758.221 241.747 761.616 235.709C765.2 229.67 769.916 224.859 775.763 221.274C781.61 217.689 788.307 215.141 795.852 213.632C803.397 211.933 811.225 211.084 819.336 211.084C824.806 211.084 829.616 211.367 833.766 211.933C838.104 212.311 841.594 212.877 844.234 213.632V209.669C844.234 202.499 842.065 196.744 837.727 192.404C833.388 188.064 825.843 185.894 815.092 185.894C807.924 185.894 800.85 186.46 793.871 187.592C786.892 188.536 780.856 189.951 775.763 191.838L770.387 157.873C772.839 157.118 775.857 156.364 779.441 155.609C783.214 154.665 787.269 153.911 791.608 153.344C795.946 152.59 800.473 152.024 805.189 151.646C810.093 151.08 814.997 150.797 819.902 150.797Z"
        fill="black" />
    <path
        d="M915.743 229.199C915.743 218.443 917.441 208.348 920.836 198.914C924.42 189.29 929.513 180.988 936.115 174.006C942.716 166.836 950.733 161.175 960.164 157.024C969.596 152.873 980.347 150.797 992.419 150.797C1000.34 150.797 1007.6 151.552 1014.21 153.061C1020.81 154.382 1027.22 156.364 1033.45 159.005L1024.67 192.687C1020.71 191.177 1016.38 189.856 1011.66 188.724C1006.94 187.592 1001.66 187.026 995.815 187.026C983.365 187.026 974.028 190.894 967.804 198.631C961.768 206.367 958.75 216.556 958.75 229.199C958.75 242.596 961.579 252.974 967.238 260.333C973.085 267.692 983.177 271.371 997.512 271.371C1002.61 271.371 1008.08 270.9 1013.92 269.956C1019.77 269.013 1025.15 267.503 1030.05 265.428L1035.99 299.958C1031.09 302.034 1024.96 303.827 1017.6 305.336C1010.24 306.846 1002.13 307.6 993.268 307.6C979.687 307.6 967.992 305.619 958.184 301.657C948.375 297.505 940.264 291.939 933.851 284.957C927.626 277.976 923.005 269.768 919.987 260.333C917.158 250.71 915.743 240.332 915.743 229.199Z"
        fill="black" />
    <path
        d="M1106.44 208.537C1110.59 204.008 1114.84 199.291 1119.18 194.385C1123.7 189.479 1128.04 184.667 1132.19 179.95C1136.34 175.044 1140.21 170.421 1143.79 166.081C1147.56 161.741 1150.77 157.967 1153.41 154.76H1203.49C1193.5 166.27 1183.69 177.308 1174.07 187.875C1164.64 198.253 1154.26 209.009 1142.94 220.142C1148.6 225.236 1154.45 231.369 1160.49 238.539C1166.52 245.521 1172.37 252.785 1178.03 260.333C1183.69 267.881 1188.87 275.428 1193.59 282.976C1198.31 290.524 1202.27 297.411 1205.47 303.638H1157.09C1154.07 298.732 1150.58 293.354 1146.62 287.505C1142.85 281.467 1138.79 275.523 1134.46 269.673C1130.12 263.635 1125.5 257.88 1120.59 252.408C1115.88 246.936 1111.16 242.313 1106.44 238.539V303.638H1064.29V90.7929L1106.44 84V208.537Z"
        fill="black" />
    <path
        d="M1365.8 154.76C1357.31 183.441 1348.44 210.33 1339.2 235.426C1329.96 260.522 1319.87 284.863 1308.92 308.45C1304.96 316.941 1301 324.111 1297.04 329.96C1293.08 335.999 1288.74 340.905 1284.03 344.678C1279.31 348.641 1273.93 351.471 1267.9 353.17C1262.05 355.057 1255.17 356 1247.24 356C1240.64 356 1234.51 355.34 1228.85 354.019C1223.38 352.887 1218.86 351.566 1215.27 350.056L1222.63 316.375C1226.97 317.884 1230.83 318.922 1234.23 319.488C1237.62 320.054 1241.21 320.337 1244.98 320.337C1252.53 320.337 1258.28 318.262 1262.24 314.11C1266.39 310.148 1269.88 304.581 1272.71 297.411C1263.09 278.542 1253.47 257.408 1243.85 234.01C1234.23 210.424 1225.17 184.007 1216.69 154.76H1261.39C1263.28 162.119 1265.45 170.138 1267.9 178.818C1270.54 187.309 1273.27 195.989 1276.1 204.857C1278.93 213.537 1281.76 222.028 1284.59 230.331C1287.61 238.633 1290.44 246.181 1293.08 252.974C1295.53 246.181 1298.08 238.633 1300.72 230.331C1303.36 222.028 1305.91 213.537 1308.36 204.857C1311 195.989 1313.45 187.309 1315.72 178.818C1318.17 170.138 1320.34 162.119 1322.22 154.76H1365.8Z"
        fill="black" />
    <defs>
        <clipPath id="clip0_726_212">
            <rect width="124" height="129" fill="white" transform="translate(141 295)" />
        </clipPath>
    </defs>
</svg>