<svg width="1408" height="441" viewBox="0 0 1408 441" fill="none" xmlns="http://www.w3.org/2000/svg">
<path fill-rule="evenodd" clip-rule="evenodd" d="M295.413 375.465C277.694 412.567 239.648 438 196 438C150.759 438 111.536 410.676 94.7286 371.356C40.1773 365.335 0 317.924 0 263.5C0 246.121 4.09734 229.456 11.4517 214.626C7.26575 202.953 5 190.424 5 177.5C5 119.862 50.0642 70.0894 109.541 69.018C108.523 62.1882 108.91 55.083 110.865 48.1343C111.441 32.6861 119.139 18.3398 131.758 9.32113C144.752 0.0345249 161.401 -2.4855 176.561 2.53952C181.816 4.28112 186.842 6.52973 191.58 9.22796C203.649 4.12668 216.902 1.25905 230.83 1.14678C245.369 1.02959 259.354 3.95936 272.073 9.38754C293.446 18.5091 305.717 41.1536 301.69 64.0401C301.126 67.2441 300.414 70.3975 299.562 73.4929C330.93 81.7991 356.059 104.206 369.137 132.97C374.058 126.394 379.777 120.419 386.25 115.122C398.184 105.354 411.708 98.6893 425.812 94.4303C440.305 89.8648 455.397 87.9639 470.545 87.9639C487.109 87.9639 503.505 89.715 518.893 94.2426C530.645 97.7002 542.159 102.018 552.496 107.659C565.878 114.96 574.729 127.615 577.568 141.689C581.26 141.017 585.055 140.392 588.934 139.806C603.058 137.477 617.565 136.364 632.395 136.364C648.845 136.364 666.046 138.483 682.095 144.922C689.988 147.959 697.647 151.934 704.757 156.998C710.274 151.635 717.096 147.483 724.882 145.086C728.969 143.828 733.249 142.775 737.467 141.868C742.669 140.606 747.956 139.634 753.286 138.906C758.632 138.008 764.057 137.338 769.544 136.876C776.046 136.159 782.57 135.797 789.106 135.797C804.934 135.797 821.193 137.544 836.368 142.719C850.591 147.57 864.601 155.417 876.126 167.606C885.954 158.695 897.096 151.6 909.226 146.261C926 138.878 943.793 135.797 961.624 135.797C968.935 135.797 976.248 136.256 983.49 137.282V125.793C983.49 101.249 1001.31 80.3344 1025.54 76.43L1067.69 69.6371C1082.16 67.3065 1096.92 71.4368 1108.07 80.9366C1119.22 90.4364 1125.65 104.35 1125.65 119V139.76H1172.7C1174.92 139.76 1177.13 139.908 1179.3 140.196C1181.47 139.907 1183.67 139.76 1185.89 139.76H1230.6C1241.91 139.76 1252.51 143.556 1261.01 150.075C1269.52 143.556 1280.12 139.76 1291.43 139.76H1335C1350.77 139.76 1365.62 147.202 1375.06 159.839C1384.5 172.476 1387.42 188.825 1382.94 203.949C1374.18 233.552 1364.98 261.48 1355.32 287.706C1345.62 314.039 1335.01 339.636 1323.49 364.489L1323.44 364.588C1318.75 374.639 1313.6 384.162 1307.84 392.703C1301.68 402.04 1294.15 410.876 1284.93 418.35C1275.03 426.557 1263.76 432.477 1251.56 436.04C1239.84 439.696 1227.86 441 1216.45 441C1206.75 441 1196.98 440.052 1187.34 437.859C1180.11 436.337 1172.43 434.235 1165.07 431.136C1147.37 423.682 1135.92 407.015 1134.6 388.638H1126.29C1117.25 388.638 1108.54 386.192 1100.98 381.756C1093.55 386.13 1084.89 388.638 1075.65 388.638H1033.49C1026.69 388.638 1020.21 387.282 1014.31 384.826C1008.56 386.661 1002.68 388.121 996.856 389.316C985.663 391.613 974.128 392.601 962.473 392.601C944.215 392.601 925.845 389.96 908.659 383.017C908.405 382.914 908.152 382.81 907.9 382.703C900.695 379.653 893.769 375.99 887.236 371.66C880.976 377.264 873.252 381.341 864.587 383.237C857.227 384.847 847.855 386.514 836.912 388.247C822.547 390.732 806.62 391.752 789.672 391.752C777.164 391.752 764.815 390.652 752.878 388.094C752.797 388.076 752.716 388.059 752.635 388.041C743.867 386.116 735.17 383.221 726.837 379.11C718.592 385.103 708.444 388.638 697.471 388.638H655.313C647.391 388.638 639.9 386.796 633.244 383.517C626.588 386.796 619.096 388.638 611.175 388.638H569.017C556.261 388.638 544.621 383.862 535.788 376C512.91 388.664 486.236 392.601 460.642 392.601C450.101 392.601 439.764 391.933 429.83 390.366C421.349 389.197 413.069 387.598 405.183 385.421C405.036 385.381 404.89 385.34 404.743 385.298C397.953 383.357 391.261 381.086 384.918 378.366C384.643 378.248 384.369 378.128 384.096 378.005C379.341 375.864 374.615 373.539 370.187 371.008C360.034 365.204 352.593 356.289 348.529 346.052C334.27 360.435 316.057 370.904 295.413 375.465Z" fill="white"/>
<ellipse cx="195.5" cy="227" rx="67.5" ry="67" fill="#7D64F2"/>
<ellipse cx="195.5" cy="227" rx="67.5" ry="67" fill="black" fill-opacity="0.8"/>
<mask id="mask0_728_422" style="mask-type:alpha" maskUnits="userSpaceOnUse" x="74" y="130" width="97" height="96">
<ellipse cx="122.5" cy="178" rx="48.5" ry="48" fill="#7D64F2"/>
</mask>
<g mask="url(#mask0_728_422)">
<ellipse cx="120.5" cy="177.5" rx="56.5" ry="58.5" fill="#7D64F2"/>
<ellipse cx="120.5" cy="177.5" rx="56.5" ry="58.5" fill="black" fill-opacity="0.79"/>
<path opacity="0.4" d="M125.991 205.521C88.3973 217.037 74.9996 185.644 73 168.508C76.1661 141.263 89.1972 90.5752 115.992 105.792C142.788 121.008 153.153 151.887 154.986 165.424C155.319 174.849 149.986 196.062 125.991 205.521Z" fill="#7D64F2"/>
<path d="M111.5 189.5C77.8999 195.1 76.1665 163.5 79.4999 147C81.6666 141.667 91.1 131 111.5 131C137 131 138 156.5 136.5 161.5C135 166.5 127.5 186 111.5 189.5Z" fill="#7D64F2"/>
<path opacity="0.5" d="M96.1713 166.171C90.9713 172.171 88.0047 169.338 87.1713 167.171C86.6713 164.004 86.9713 156.271 92.1713 150.671C101.671 140.671 110.671 139.171 116.171 138.171C121.671 137.171 131.171 140.671 120.171 145.671C109.171 150.671 102.671 158.671 96.1713 166.171Z" fill="white"/>
</g>
<mask id="mask1_728_422" style="mask-type:alpha" maskUnits="userSpaceOnUse" x="161" y="116" width="84" height="82">
<ellipse cx="203" cy="157" rx="42" ry="41" fill="#7D64F2"/>
</mask>
<g mask="url(#mask1_728_422)">
<ellipse cx="203.5" cy="159.5" rx="45.5" ry="44.5" fill="#7D64F2"/>
<ellipse cx="203.5" cy="159.5" rx="45.5" ry="44.5" fill="black" fill-opacity="0.79"/>
<path opacity="0.4" d="M208.991 187.521C171.397 199.037 158 167.644 156 150.508C159.166 123.263 172.197 72.5752 198.992 87.7917C225.788 103.008 236.5 132.5 236.5 148C236.5 163.5 232.986 178.062 208.991 187.521Z" fill="#7D64F2"/>
<path d="M194.5 171.5C160.9 177.1 159.167 145.5 162.5 129C164.667 123.667 174.1 113 194.5 113C220 113 225 135.5 220.5 147C217.37 155 210.5 168 194.5 171.5Z" fill="#7D64F2"/>
<path opacity="0.5" d="M179.171 148.171C173.971 154.171 171.005 151.338 170.171 149.171C169.671 146.004 169.971 138.271 175.171 132.671C184.671 122.671 193.671 121.171 199.171 120.171C204.671 119.171 214.171 122.671 203.171 127.671C192.171 132.671 185.671 140.671 179.171 148.171Z" fill="white"/>
</g>
<mask id="mask2_728_422" style="mask-type:alpha" maskUnits="userSpaceOnUse" x="69" y="216" width="101" height="99">
<ellipse cx="119.5" cy="265.5" rx="50.5" ry="49.5" fill="#7D64F2"/>
</mask>
<g mask="url(#mask2_728_422)">
<ellipse cx="115.5" cy="263.5" rx="56.5" ry="58.5" fill="#7D64F2"/>
<ellipse cx="115.5" cy="263.5" rx="56.5" ry="58.5" fill="black" fill-opacity="0.79"/>
<path opacity="0.4" d="M120.991 291.521C83.3973 303.037 69.9996 271.644 68 254.508C71.1661 227.263 84.1972 176.575 110.992 191.792C137.788 207.008 148.5 236.5 148.5 252C148.5 267.5 144.986 282.062 120.991 291.521Z" fill="#7D64F2"/>
<path d="M106.5 275.5C72.8999 281.1 71.1665 249.5 74.4999 233C76.6666 227.667 86.1 217 106.5 217C132 217 137 239.5 132.5 251C129.37 259 122.5 272 106.5 275.5Z" fill="#7D64F2"/>
<path opacity="0.5" d="M91.1713 252.171C85.9713 258.171 83.0047 255.338 82.1713 253.171C81.6713 250.004 81.9713 242.271 87.1713 236.671C96.6713 226.671 105.671 225.171 111.171 224.171C116.671 223.171 126.171 226.671 115.171 231.671C104.171 236.671 97.6713 244.671 91.1713 252.171Z" fill="white"/>
</g>
<mask id="mask3_728_422" style="mask-type:alpha" maskUnits="userSpaceOnUse" x="235" y="131" width="97" height="96">
<ellipse cx="283.5" cy="179" rx="48.5" ry="48" fill="#7D64F2"/>
</mask>
<g mask="url(#mask3_728_422)">
<ellipse cx="281.5" cy="178.5" rx="56.5" ry="58.5" fill="#7D64F2"/>
<ellipse cx="281.5" cy="178.5" rx="56.5" ry="58.5" fill="black" fill-opacity="0.79"/>
<path opacity="0.4" d="M286.991 206.521C249.397 218.037 236 186.644 234 169.508C237.166 142.263 250.197 91.5752 276.992 106.792C303.788 122.008 314.153 152.887 315.986 166.424C316.319 175.849 310.986 197.062 286.991 206.521Z" fill="#7D64F2"/>
<path d="M272.5 190.5C238.9 196.1 237.167 164.5 240.5 148C242.667 142.667 252.1 132 272.5 132C298 132 299 157.5 297.5 162.5C296 167.5 288.5 187 272.5 190.5Z" fill="#7D64F2"/>
<path opacity="0.5" d="M257.171 167.171C251.971 173.171 249.005 170.338 248.171 168.171C247.671 165.004 247.971 157.271 253.171 151.671C262.671 141.671 271.671 140.171 277.171 139.171C282.671 138.171 292.171 141.671 281.171 146.671C270.171 151.671 263.671 159.671 257.171 167.171Z" fill="white"/>
</g>
<mask id="mask4_728_422" style="mask-type:alpha" maskUnits="userSpaceOnUse" x="154" y="187" width="84" height="82">
<ellipse cx="196" cy="228" rx="42" ry="41" fill="#7D64F2"/>
</mask>
<g mask="url(#mask4_728_422)">
<ellipse cx="196.5" cy="230.5" rx="45.5" ry="44.5" fill="#7D64F2"/>
<ellipse cx="196.5" cy="230.5" rx="45.5" ry="44.5" fill="black" fill-opacity="0.79"/>
<path opacity="0.4" d="M201.991 258.521C164.397 270.037 151 238.644 149 221.508C152.166 194.263 165.197 143.575 191.992 158.792C218.788 174.008 229.5 203.5 229.5 219C229.5 234.5 225.986 249.062 201.991 258.521Z" fill="#7D64F2"/>
<path d="M187.5 242.5C153.9 248.1 152.167 216.5 155.5 200C157.667 194.667 167.1 184 187.5 184C213 184 218 206.5 213.5 218C210.37 226 203.5 239 187.5 242.5Z" fill="#7D64F2"/>
<path opacity="0.5" d="M172.171 219.171C166.971 225.171 164.005 222.338 163.171 220.171C162.671 217.004 162.971 209.271 168.171 203.671C177.671 193.671 186.671 192.171 192.171 191.171C197.671 190.171 207.171 193.671 196.171 198.671C185.171 203.671 178.671 211.671 172.171 219.171Z" fill="white"/>
</g>
<g clip-path="url(#clip0_728_422)">
<mask id="mask5_728_422" style="mask-type:alpha" maskUnits="userSpaceOnUse" x="145" y="267" width="124" height="124">
<circle cx="207" cy="329" r="62" fill="#7D64F2"/>
</mask>
<g mask="url(#mask5_728_422)">
<ellipse cx="205" cy="328.5" rx="60" ry="59.5" fill="#7D64F2"/>
<ellipse cx="205" cy="328.5" rx="60" ry="59.5" fill="black" fill-opacity="0.79"/>
<path opacity="0.4" d="M206.536 358.096C162.171 371.586 146.36 334.812 144 314.738C147.736 282.822 163.115 223.445 194.736 241.27C226.358 259.095 239 293.643 239 311.8C239 329.957 234.854 347.016 206.536 358.096Z" fill="#7D64F2"/>
<path d="M189.839 339.234C150.51 345.766 148.481 308.908 152.383 289.662C154.919 283.442 165.961 271 189.839 271C219.686 271 225.539 297.244 220.272 310.657C216.608 319.989 208.567 335.152 189.839 339.234Z" fill="#7D64F2"/>
<path opacity="0.5" d="M171.791 311.808C165.673 318.796 162.182 315.496 161.202 312.973C160.613 309.285 160.966 300.279 167.085 293.757C178.262 282.111 188.852 280.364 195.323 279.199C201.794 278.035 212.972 282.111 200.03 287.934C187.087 293.757 179.439 303.073 171.791 311.808Z" fill="white"/>
</g>
</g>
<mask id="mask6_728_422" style="mask-type:alpha" maskUnits="userSpaceOnUse" x="232" y="215" width="105" height="105">
<circle cx="284.5" cy="267.5" r="52.5" fill="#7D64F2"/>
</mask>
<g mask="url(#mask6_728_422)">
<ellipse cx="281" cy="267" rx="59" ry="61" fill="#7D64F2"/>
<ellipse cx="281" cy="267" rx="59" ry="61" fill="black" fill-opacity="0.79"/>
<path opacity="0.4" d="M283.991 292.521C246.397 304.037 233 272.644 231 255.508C234.166 228.263 247.197 177.575 273.992 192.792C300.788 208.008 311.5 237.5 311.5 253C311.5 268.5 307.986 283.062 283.991 292.521Z" fill="#7D64F2"/>
<path d="M269.5 276.5C235.9 282.1 234.167 250.5 237.5 234C239.667 228.667 249.1 218 269.5 218C295 218 300 240.5 295.5 252C292.37 260 285.5 273 269.5 276.5Z" fill="#7D64F2"/>
<path opacity="0.5" d="M254.171 253.171C248.971 259.171 246.005 256.338 245.171 254.171C244.671 251.004 244.971 243.271 250.171 237.671C259.671 227.671 268.671 226.171 274.171 225.171C279.671 224.171 289.171 227.671 278.171 232.671C267.171 237.671 260.671 245.671 254.171 253.171Z" fill="white"/>
</g>
<path fill-rule="evenodd" clip-rule="evenodd" d="M169.83 50C169.791 54.059 169.153 57.9747 168 61.6632C179.595 68.7633 187.332 81.5485 187.332 96.1407C187.332 97.7885 187.233 99.4133 187.041 101.009C190.748 95.5969 192.917 89.0477 192.917 81.9921C192.917 67.0889 183.242 54.4454 169.83 50Z" fill="#1A1A1A"/>
<path fill-rule="evenodd" clip-rule="evenodd" d="M209.671 99.1312C235.643 98.9219 257.101 80.0681 261.446 55.3743C254.937 52.5963 247.762 51.0841 240.233 51.1448C214.261 51.3541 192.802 70.2079 188.457 94.9018C188.965 95.1186 189.477 95.3277 189.993 95.5289C200.721 77.2046 219.776 64.3258 242.008 62.1259C225.008 68.8184 211.366 82.1486 204.248 98.9012C206.032 99.0678 207.841 99.146 209.671 99.1312Z" fill="#1A1A1A"/>
<path d="M469.642 304.956C475.867 304.956 480.96 304.485 484.921 303.541C489.07 302.409 492.371 300.994 494.824 299.296C497.276 297.409 498.973 295.239 499.916 292.786C500.86 290.333 501.331 287.597 501.331 284.578C501.331 278.162 498.313 272.879 492.277 268.727C486.241 264.387 475.867 259.764 461.154 254.858C454.74 252.594 448.327 250.047 441.914 247.216C435.501 244.197 429.747 240.518 424.655 236.178C419.562 231.649 415.412 226.272 412.205 220.045C408.999 213.629 407.395 205.893 407.395 196.836C407.395 187.778 409.093 179.665 412.488 172.494C415.883 165.135 420.693 158.908 426.918 153.814C433.143 148.719 440.688 144.851 449.553 142.209C458.419 139.379 468.416 137.964 479.545 137.964C492.749 137.964 504.161 139.379 513.781 142.209C523.4 145.04 531.323 148.153 537.547 151.549L524.815 186.363C519.345 183.533 513.215 181.08 506.424 179.004C499.822 176.74 491.806 175.608 482.374 175.608C471.811 175.608 464.172 177.117 459.456 180.136C454.929 182.967 452.666 187.401 452.666 193.439C452.666 197.024 453.514 200.043 455.212 202.496C456.91 204.949 459.268 207.214 462.286 209.289C465.492 211.176 469.076 212.969 473.037 214.667C477.187 216.177 481.714 217.78 486.618 219.479C496.804 223.253 505.67 227.026 513.215 230.8C520.76 234.385 526.984 238.631 531.889 243.537C536.982 248.443 540.754 254.198 543.206 260.802C545.658 267.407 546.884 275.426 546.884 284.861C546.884 303.164 540.471 317.41 527.645 327.599C514.818 337.6 495.484 342.6 469.642 342.6C460.965 342.6 453.137 342.034 446.158 340.902C439.179 339.959 432.954 338.732 427.484 337.223C422.202 335.713 417.581 334.109 413.62 332.411C409.847 330.713 406.641 329.109 404 327.599L416.449 292.503C422.297 295.71 429.465 298.635 437.953 301.277C446.63 303.73 457.193 304.956 469.642 304.956Z" fill="black"/>
<path d="M578.017 194.854C585.184 192.779 594.427 190.892 605.745 189.194C617.062 187.307 628.946 186.363 641.395 186.363C654.033 186.363 664.502 188.061 672.801 191.458C681.29 194.666 687.986 199.289 692.89 205.327C697.794 211.365 701.284 218.535 703.359 226.838C705.434 235.14 706.471 244.386 706.471 254.575V338.638H664.313V259.67C664.313 246.084 662.521 236.461 658.937 230.8C655.353 225.139 648.657 222.309 638.849 222.309C635.831 222.309 632.624 222.498 629.229 222.875C625.833 223.064 622.815 223.347 620.175 223.724V338.638H578.017V194.854Z" fill="black"/>
<path d="M801.501 309.202C805.651 309.202 809.612 309.108 813.385 308.919C817.157 308.73 820.175 308.447 822.439 308.07V276.086C820.741 275.709 818.195 275.332 814.799 274.954C811.404 274.577 808.292 274.388 805.462 274.388C801.501 274.388 797.729 274.671 794.145 275.237C790.749 275.615 787.731 276.464 785.091 277.785C782.45 279.105 780.375 280.898 778.866 283.162C777.357 285.427 776.603 288.257 776.603 291.653C776.603 298.258 778.772 302.881 783.11 305.522C787.637 307.975 793.768 309.202 801.501 309.202ZM798.106 185.797C810.555 185.797 820.93 187.212 829.229 190.043C837.529 192.873 844.131 196.93 849.035 202.213C854.128 207.497 857.712 213.912 859.787 221.46C861.862 229.008 862.899 237.404 862.899 246.65V334.392C856.863 335.713 848.469 337.223 837.717 338.921C826.966 340.808 813.951 341.751 798.672 341.751C789.052 341.751 780.281 340.902 772.358 339.204C764.625 337.506 757.929 334.77 752.27 330.996C746.611 327.033 742.273 321.939 739.255 315.712C736.236 309.485 734.727 301.843 734.727 292.786C734.727 284.106 736.425 276.747 739.82 270.709C743.404 264.67 748.12 259.859 753.967 256.274C759.815 252.689 766.511 250.141 774.056 248.632C781.601 246.933 789.429 246.084 797.54 246.084C803.01 246.084 807.82 246.367 811.97 246.933C816.308 247.311 819.798 247.877 822.439 248.632V244.669C822.439 237.499 820.27 231.744 815.931 227.404C811.593 223.064 804.048 220.894 793.296 220.894C786.128 220.894 779.055 221.46 772.075 222.592C765.096 223.536 759.06 224.951 753.967 226.838L748.592 192.873C751.044 192.118 754.062 191.364 757.646 190.609C761.418 189.665 765.474 188.911 769.812 188.344C774.15 187.59 778.677 187.024 783.393 186.646C788.297 186.08 793.202 185.797 798.106 185.797Z" fill="black"/>
<path d="M893.947 264.199C893.947 253.443 895.645 243.348 899.04 233.914C902.624 224.29 907.717 215.988 914.319 209.006C920.921 201.836 928.937 196.175 938.369 192.024C947.8 187.873 958.552 185.797 970.624 185.797C978.546 185.797 985.808 186.552 992.41 188.061C999.012 189.382 1005.43 191.364 1011.65 194.005L1002.88 227.687C998.918 226.177 994.579 224.856 989.864 223.724C985.148 222.592 979.867 222.026 974.019 222.026C961.57 222.026 952.233 225.894 946.008 233.631C939.972 241.367 936.954 251.556 936.954 264.199C936.954 277.596 939.783 287.974 945.442 295.333C951.29 302.692 961.381 306.371 975.717 306.371C980.81 306.371 986.28 305.9 992.127 304.956C997.975 304.013 1003.35 302.503 1008.25 300.428L1014.2 334.958C1009.29 337.034 1003.16 338.827 995.805 340.336C988.449 341.846 980.338 342.6 971.473 342.6C957.892 342.6 946.197 340.619 936.388 336.657C926.58 332.505 918.469 326.939 912.055 319.957C905.831 312.976 901.209 304.768 898.191 295.333C895.362 285.71 893.947 275.332 893.947 264.199Z" fill="black"/>
<path d="M1084.65 243.537C1088.8 239.008 1093.04 234.291 1097.38 229.385C1101.91 224.479 1106.25 219.667 1110.4 214.95C1114.55 210.044 1118.41 205.421 1122 201.081C1125.77 196.741 1128.98 192.967 1131.62 189.76H1181.7C1171.7 201.27 1161.89 212.308 1152.27 222.875C1142.84 233.253 1132.47 244.009 1121.15 255.142C1126.81 260.236 1132.65 266.369 1138.69 273.539C1144.73 280.521 1150.57 287.785 1156.23 295.333C1161.89 302.881 1167.08 310.428 1171.79 317.976C1176.51 325.524 1180.47 332.411 1183.68 338.638H1135.29C1132.28 333.732 1128.79 328.354 1124.83 322.505C1121.05 316.467 1117 310.523 1112.66 304.673C1108.32 298.635 1103.7 292.88 1098.8 287.408C1094.08 281.936 1089.36 277.313 1084.65 273.539V338.638H1042.49V125.793L1084.65 119V243.537Z" fill="black"/>
<path d="M1344 189.76C1335.51 218.441 1326.65 245.33 1317.4 270.426C1308.16 295.522 1298.07 319.863 1287.13 343.45C1283.17 351.941 1279.21 359.111 1275.25 364.96C1271.28 370.999 1266.95 375.905 1262.23 379.678C1257.51 383.641 1252.14 386.471 1246.1 388.17C1240.26 390.057 1233.37 391 1225.45 391C1218.85 391 1212.72 390.34 1207.06 389.019C1201.59 387.887 1197.06 386.566 1193.48 385.056L1200.83 351.375C1205.17 352.884 1209.04 353.922 1212.43 354.488C1215.83 355.054 1219.41 355.337 1223.18 355.337C1230.73 355.337 1236.48 353.262 1240.44 349.11C1244.59 345.148 1248.08 339.581 1250.91 332.411C1241.29 313.542 1231.67 292.408 1222.05 269.01C1212.43 245.424 1203.38 219.007 1194.89 189.76H1239.6C1241.48 197.119 1243.65 205.138 1246.1 213.818C1248.74 222.309 1251.48 230.989 1254.31 239.857C1257.14 248.537 1259.97 257.028 1262.8 265.331C1265.81 273.633 1268.64 281.181 1271.28 287.974C1273.74 281.181 1276.28 273.633 1278.92 265.331C1281.56 257.028 1284.11 248.537 1286.56 239.857C1289.2 230.989 1291.66 222.309 1293.92 213.818C1296.37 205.138 1298.54 197.119 1300.43 189.76H1344Z" fill="black"/>
<defs>
<clipPath id="clip0_728_422">
<rect width="124" height="129" fill="white" transform="translate(141 266)"/>
</clipPath>
</defs>
</svg>
